<?xml version="1.0" encoding="UTF-8" standalone="no"?>
<!-- Generator: Adobe Illustrator 14.0.0, SVG Export Plug-In . SVG Version: 6.00 Build 43363)  -->

<svg
   xmlns:dc="http://purl.org/dc/elements/1.1/"
   xmlns:cc="http://creativecommons.org/ns#"
   xmlns:rdf="http://www.w3.org/1999/02/22-rdf-syntax-ns#"
   xmlns:svg="http://www.w3.org/2000/svg"
   xmlns="http://www.w3.org/2000/svg"
   xmlns:sodipodi="http://sodipodi.sourceforge.net/DTD/sodipodi-0.dtd"
   xmlns:inkscape="http://www.inkscape.org/namespaces/inkscape"
   version="1.1"
   id="Layer_1"
   x="0px"
   y="0px"
   width="283px"
   height="283px"
   viewBox="0 0 283 283"
   enable-background="new 0 0 283 283"
   xml:space="preserve"
   inkscape:version="0.47 r22583"
   sodipodi:docname="c2-cog-logo-01.svg"><metadata
   id="metadata9"><rdf:RDF><cc:Work
       rdf:about=""><dc:format>image/svg+xml</dc:format><dc:type
         rdf:resource="http://purl.org/dc/dcmitype/StillImage" /><dc:title></dc:title></cc:Work></rdf:RDF></metadata><defs
   id="defs7"><inkscape:perspective
     sodipodi:type="inkscape:persp3d"
     inkscape:vp_x="0 : 141.5 : 1"
     inkscape:vp_y="0 : 1000 : 0"
     inkscape:vp_z="283 : 141.5 : 1"
     inkscape:persp3d-origin="141.5 : 94.333333 : 1"
     id="perspective11" /></defs><sodipodi:namedview
   pagecolor="#ffffff"
   bordercolor="#666666"
   borderopacity="1"
   objecttolerance="10"
   gridtolerance="10"
   guidetolerance="10"
   inkscape:pageopacity="0"
   inkscape:pageshadow="2"
   inkscape:window-width="1920"
   inkscape:window-height="1028"
   id="namedview5"
   showgrid="false"
   inkscape:zoom="0.83392226"
   inkscape:cx="141.5"
   inkscape:cy="141.5"
   inkscape:window-x="-8"
   inkscape:window-y="-8"
   inkscape:window-maximized="1"
   inkscape:current-layer="Layer_1" />
<path
   fill-rule="evenodd"
   clip-rule="evenodd"
   d="M141.394,27.886c3.221,0.345,5.727,3.076,5.718,6.384  c0,0.154-0.126,1.407-0.127,1.418c-0.938,8.581,4.668,16.693,13.284,18.661c8.617,1.967,17.248-2.893,20.066-11.05  c0.155-0.449,0.3-0.905,0.504-1.332c1.494-3.125,5.19-4.483,8.341-3.107c9.811,4.677,18.842,10.721,26.849,17.889  c2.412,2.413,2.362,6.463,0.024,8.895l-46.392,46.369c-2.291,1.991-5.593,2.066-7.951,0.362c-5.953-4.392-13.311-6.986-21.277-6.986  c-19.813,0-35.875,16.062-35.875,35.875s16.062,35.875,35.875,35.875c8.041,0,15.462-2.645,21.443-7.111  c2.622-1.577,5.707-1.502,8.004,0.683l45.959,45.958c0.489,0.488,0.862,0.942,1.2,1.558c1.392,2.525,0.899,5.581-1.007,7.549  l-0.724,0.641c-7.8,6.9-16.597,12.702-26.103,17.238c-3.155,1.398-6.875,0.042-8.371-3.094c-0.065-0.136-0.5-1.326-0.502-1.332  c-2.874-8.139-11.449-13.017-20.066-11.05c-8.616,1.967-14.218,10.081-13.283,18.661c0.001,0.016,0.123,1.261,0.123,1.419  c0.007,3.31-2.496,6.041-5.72,6.384c-0.319,0.003-0.634,0.012-0.954,0.012c-17.83,0-34.696-4.12-49.706-11.453  c-3.012-1.615-4.24-5.335-2.734-8.438c0.065-0.135,0.728-1.22,0.729-1.223c4.587-7.321,3.051-17.078-3.863-22.593  s-16.761-4.832-22.884,1.261c-0.01,0.011-0.911,0.889-1.031,0.984c-2.595,2.082-6.321,1.813-8.595-0.53  c-10.876-13.399-18.752-29.33-22.617-46.771c-0.575-3.339,1.564-6.579,4.905-7.333c0.147-0.032,1.404-0.19,1.411-0.19  c8.585-0.979,15.259-8.259,15.259-17.105c0-8.846-6.674-16.126-15.261-17.107c-0.009,0-1.261-0.159-1.409-0.192  c-3.339-0.751-5.476-3.986-4.906-7.321C33.597,99.2,41.474,83.265,52.35,69.864c2.274-2.343,6.002-2.615,8.599-0.531  c0.118,0.093,1.025,0.98,1.029,0.984c6.116,6.1,15.97,6.778,22.884,1.262c6.916-5.513,8.44-15.267,3.86-22.593  c-0.008-0.012-0.657-1.082-0.727-1.222c-1.505-3.104-0.278-6.823,2.735-8.438C106.57,31.586,123.774,27.745,141.394,27.886  L141.394,27.886z M222.503,161.013v-8.057h-15.532v-0.13c2.808-2.39,5.489-4.638,8.028-7.336c4.886-5.186,8.563-12.005,5.746-19.229  c-2.23-5.707-7.75-7.825-13.461-7.853c-4.629,0.028-9.702,1.41-13.384,4.319l2.716,6.961c2.521-1.935,5.546-3.388,8.774-3.416  c2.411,0.016,4.854,0.71,6.009,3.019c2.773,5.471-3.2,11.729-6.86,15.371c-3.596,3.576-7.415,6.979-11.145,10.421v5.93H222.503  L222.503,161.013z M228.796,70.197c-1.252-1.204-3.246-1.235-4.462-0.019l-49.717,49.715c-1.806,1.851-2.345,4.588-1.326,6.948  c1.91,4.425,3.019,9.327,3.019,14.421s-1.034,9.883-2.94,14.244c-1.062,2.424-0.614,5.224,1.246,7.125l49.427,49.427  c1.251,1.252,3.14,1.584,4.514,0.481c0.348-0.277,0.771-0.821,1.043-1.22c1.858-2.723,1.279-6.481-1.352-8.566  c-0.369-0.293-0.784-0.539-1.186-0.788c-7.324-4.563-10.142-14.057-6.307-22.02c3.834-7.963,12.989-11.618,21.146-8.799  c0.014,0.005,1.206,0.403,1.356,0.438c3.438,0.795,6.886-1.345,7.679-4.781c1.896-8.205,2.888-16.752,2.888-25.541  c0-8.788-0.979-17.361-2.896-25.572c-0.797-3.418-4.243-5.536-7.669-4.745c-0.154,0.035-1.335,0.428-1.356,0.434  c-8.158,2.815-17.313-0.835-21.147-8.798s-0.993-17.414,6.306-22.02c-0.003-0.009,1.067-0.69,1.188-0.786  c2.629-2.084,3.183-5.822,1.354-8.565C229.335,70.873,229.08,70.472,228.796,70.197z"
   id="path3" />
</svg>