<?xml version="1.0" encoding="UTF-8" standalone="no"?>
<!-- Created with Inkscape (http://www.inkscape.org/) -->

<svg
   xmlns:dc="http://purl.org/dc/elements/1.1/"
   xmlns:cc="http://creativecommons.org/ns#"
   xmlns:rdf="http://www.w3.org/1999/02/22-rdf-syntax-ns#"
   xmlns:svg="http://www.w3.org/2000/svg"
   xmlns="http://www.w3.org/2000/svg"
   xmlns:sodipodi="http://sodipodi.sourceforge.net/DTD/sodipodi-0.dtd"
   xmlns:inkscape="http://www.inkscape.org/namespaces/inkscape"
   width="210mm"
   height="297mm"
   viewBox="0 0 744.09448819 1052.3622047"
   id="svg2"
   version="1.1"
   inkscape:version="0.91 r13725"
   sodipodi:docname="the-internet-code-org-videos.svg">
  <defs
     id="defs4">
    <clipPath
       clipPathUnits="userSpaceOnUse"
       id="clipPath3388">
      <path
         d="m 59.983,88.995 64.451,0 0,64.044 -64.451,0 0,-64.044 z"
         id="path3390" />
    </clipPath>
  </defs>
  <sodipodi:namedview
     id="base"
     pagecolor="#ffffff"
     bordercolor="#666666"
     borderopacity="1.0"
     inkscape:pageopacity="0.0"
     inkscape:pageshadow="2"
     inkscape:zoom="0.98994949"
     inkscape:cx="300.62889"
     inkscape:cy="810.61637"
     inkscape:document-units="px"
     inkscape:current-layer="layer1"
     showgrid="false"
     showguides="false"
     inkscape:window-width="1920"
     inkscape:window-height="1018"
     inkscape:window-x="-8"
     inkscape:window-y="-8"
     inkscape:window-maximized="1" />
  <metadata
     id="metadata7">
    <rdf:RDF>
      <cc:Work
         rdf:about="">
        <dc:format>image/svg+xml</dc:format>
        <dc:type
           rdf:resource="http://purl.org/dc/dcmitype/StillImage" />
        <dc:title></dc:title>
      </cc:Work>
    </rdf:RDF>
  </metadata>
  <g
     inkscape:label="Layer 1"
     inkscape:groupmode="layer"
     id="layer1">
    <g
       id="g3290"
       transform="matrix(0.52444374,0,0,-0.52444374,273.64611,514.5082)"
       style="opacity:0.56999972">
      <g
         id="g3386"
         clip-path="url(#clipPath3388)">
        <g
           id="g3392"
           transform="translate(90.3513,127.0783)">
          <path
             d="m 0,0 c 0,-2.435 -1.974,-4.408 -4.408,-4.408 l -21.552,0 c -2.435,0 -4.408,1.973 -4.408,4.408 l 0,21.552 c 0,2.435 1.973,4.408 4.408,4.408 l 21.552,0 C -1.974,25.96 0,23.987 0,21.552 L 0,0 Z"
             style="fill:#0a0d0e;fill-opacity:1;fill-rule:nonzero;stroke:none"
             id="path3394"
             inkscape:connector-curvature="0" />
        </g>
        <g
           id="g3396"
           transform="translate(124.4337,127.0783)">
          <path
             d="m 0,0 c 0,-2.435 -1.974,-4.408 -4.408,-4.408 l -21.552,0 c -2.434,0 -4.408,1.973 -4.408,4.408 l 0,21.552 c 0,2.435 1.974,4.408 4.408,4.408 l 21.552,0 C -1.974,25.96 0,23.987 0,21.552 L 0,0 Z"
             style="fill:#0a0d0e;fill-opacity:1;fill-rule:nonzero;stroke:none"
             id="path3398"
             inkscape:connector-curvature="0" />
        </g>
        <g
           id="g3400"
           transform="translate(90.3513,93.4031)">
          <path
             d="m 0,0 c 0,-2.435 -1.974,-4.408 -4.408,-4.408 l -21.552,0 c -2.435,0 -4.408,1.973 -4.408,4.408 l 0,21.552 c 0,2.434 1.973,4.408 4.408,4.408 l 21.552,0 C -1.974,25.96 0,23.986 0,21.552 L 0,0 Z"
             style="fill:#0a0d0e;fill-opacity:1;fill-rule:nonzero;stroke:none"
             id="path3402"
             inkscape:connector-curvature="0" />
        </g>
        <g
           id="g3404"
           transform="translate(124.4337,93.4024)">
          <path
             d="m 0,0 c 0,-2.435 -1.974,-4.408 -4.408,-4.408 l -21.552,0 c -2.434,0 -4.408,1.973 -4.408,4.408 l 0,21.552 c 0,2.435 1.974,4.408 4.408,4.408 l 21.552,0 C -1.974,25.96 0,23.987 0,21.552 L 0,0 Z"
             style="fill:#0a0d0e;fill-opacity:1;fill-rule:nonzero;stroke:none"
             id="path3406"
             inkscape:connector-curvature="0" />
        </g>
        <g
           id="g3408"
           transform="translate(109.2889,142.3874)">
          <path
             d="m 0,0 c -1.377,0 -2.507,-0.431 -3.394,-1.292 -0.886,-0.861 -1.329,-1.96 -1.329,-3.297 0,-1.298 0.445,-2.376 1.333,-3.237 0.889,-0.861 2.002,-1.292 3.338,-1.292 1.341,0 2.462,0.439 3.359,1.317 0.898,0.879 1.346,1.972 1.346,3.281 0,1.274 -0.448,2.346 -1.346,3.216 C 2.41,-0.435 1.307,0 0,0 m -0.069,1.636 c 1.858,0 3.406,-0.588 4.642,-1.765 1.236,-1.177 1.854,-2.652 1.854,-4.426 0,-1.773 -0.624,-3.242 -1.871,-4.404 -1.248,-1.162 -2.821,-1.743 -4.72,-1.743 -1.813,0 -3.322,0.581 -4.53,1.743 -1.208,1.162 -1.811,2.619 -1.811,4.37 0,1.796 0.608,3.283 1.824,4.46 1.216,1.177 2.753,1.765 4.612,1.765"
             style="fill:#ffffff;fill-opacity:1;fill-rule:nonzero;stroke:none"
             id="path3410"
             inkscape:connector-curvature="0" />
        </g>
        <g
           id="g3412"
           transform="translate(74.1758,108.6519)">
          <path
             d="m 0,0 -2.153,0 0,-8.946 2.205,0 c 0.861,0 1.529,0.06 2.006,0.177 0.476,0.118 0.874,0.267 1.192,0.448 0.319,0.181 0.61,0.403 0.874,0.667 0.85,0.861 1.274,1.948 1.274,3.263 0,1.291 -0.436,2.344 -1.308,3.16 C 3.768,-0.927 3.399,-0.677 2.984,-0.482 2.567,-0.287 2.172,-0.158 1.8,-0.095 1.427,-0.032 0.827,0 0,0 m -3.874,-9.931 0,10.912 c 0,0.338 0.239,0.551 0.569,0.551 l 3.486,0 c 1.636,0 2.93,-0.244 3.883,-0.735 0.953,-0.491 1.71,-1.213 2.273,-2.166 0.563,-0.953 0.844,-1.992 0.844,-3.117 0,-0.803 -0.155,-1.573 -0.465,-2.307 -0.31,-0.735 -0.752,-1.381 -1.326,-1.938 -0.585,-0.574 -1.266,-1.007 -2.041,-1.3 -0.453,-0.178 -0.869,-0.296 -1.248,-0.357 -0.379,-0.06 -1.102,-0.09 -2.17,-0.09 0,0 -2.849,0.004 -3.242,0 -0.359,-0.004 -0.563,0.299 -0.563,0.547"
             style="fill:#ffffff;fill-opacity:1;fill-rule:nonzero;stroke:none"
             id="path3414"
             inkscape:connector-curvature="0" />
        </g>
        <g
           id="g3416"
           transform="translate(111.9753,99.7086)">
          <path
             d="m 0,0 c -0.01,0 -4.494,-0.003 -4.494,-0.003 l 0,3.737 4.18,0.006 c 0.417,0.009 0.753,0.349 0.753,0.769 0,0.425 -0.344,0.77 -0.77,0.77 -0.014,0 -4.163,-0.004 -4.163,-0.004 l 0,3.668 4.31,0 c 0,0 0.011,0.002 0.016,0.002 0.424,0 0.768,0.344 0.768,0.768 0,0.424 -0.344,0.768 -0.768,0.768 -0.014,0 -4.02,-0.005 -5.504,-0.005 -0.321,0 -0.545,-0.259 -0.545,-0.543 l 0,-10.92 c 0,-0.311 0.255,-0.549 0.545,-0.549 1.513,0 5.658,-0.005 5.672,-0.005 0.426,0 0.77,0.345 0.77,0.771 C 0.77,-0.345 0.426,0 0,0"
             style="fill:#ffffff;fill-opacity:1;fill-rule:nonzero;stroke:none"
             id="path3418"
             inkscape:connector-curvature="0" />
        </g>
        <g
           id="g3420"
           transform="translate(79.4329,134.0546)">
          <path
             d="m 0,0 c -0.116,0 -0.329,-0.068 -0.33,-0.068 -1.023,-0.473 -2.063,-0.709 -3.122,-0.709 -1.395,0 -2.54,0.425 -3.435,1.275 -0.895,0.849 -1.343,1.934 -1.343,3.254 0,1.309 0.455,2.398 1.365,3.268 0.909,0.869 2.053,1.304 3.43,1.304 0.972,0 1.944,-0.198 2.948,-0.618 0.107,-0.052 0.241,-0.097 0.368,-0.097 0.449,0 0.813,0.364 0.813,0.813 0,0.345 -0.292,0.67 -0.524,0.76 -1.34,0.52 -2.571,0.778 -3.691,0.778 -1.831,0 -3.37,-0.597 -4.619,-1.791 -1.248,-1.194 -1.872,-2.666 -1.872,-4.417 0,-1.102 0.272,-2.127 0.818,-3.074 0.545,-0.947 1.285,-1.69 2.221,-2.23 0.935,-0.539 2.075,-0.809 3.418,-0.809 1.421,0 2.711,0.261 3.844,0.77 0.33,0.124 0.534,0.44 0.534,0.768 C 0.823,-0.369 0.454,0 0,0"
             style="fill:#ffffff;fill-opacity:1;fill-rule:nonzero;stroke:none"
             id="path3422"
             inkscape:connector-curvature="0" />
        </g>
      </g>
    </g>
    <g
       id="g4351"
       inkscape:export-xdpi="74.500755"
       inkscape:export-ydpi="74.500755">
      <g
         style="opacity:0.60399996"
         id="g4190"
         inkscape:label="ink_ext_XXXXXX"
         transform="matrix(0.37409267,0,0,-0.37409267,243.21761,311.47765)"
         inkscape:export-xdpi="74.500755"
         inkscape:export-ydpi="74.500755">
        <g
           id="g4192"
           transform="scale(0.1,0.1)">
          <path
             d="m 6601.68,776.332 c -0.87,11.277 -2.32,22.707 -4.48,34.297 l -36.59,196.311 c -32.76,175.8 -29.78,462.88 6.63,637.96 l 194.63,936.09 c 36.4,175.08 66.18,374.38 66.18,442.9 0,68.51 -21.02,124.57 -46.71,124.57 -25.69,0 -127.88,121.74 -227.07,270.53 l -293.3,439.96 c -99.2,148.79 -260.94,217.97 -359.43,153.74 -98.49,-64.23 -150.38,-260.26 -115.31,-435.61 l 28.19,-140.94 c 35.07,-175.35 18.78,-458.05 -36.2,-628.21 l -127.09,-393.38 c -54.98,-170.17 -55.73,-448.86 -1.68,-619.32 l 5.89,-18.58 c 54.04,-170.46 119.07,-454.76 144.49,-631.77 L 5847.53,812.832 5902.8,0 6866.76,0 6601.68,776.332"
             style="fill:#f7c19d;fill-opacity:1;fill-rule:nonzero;stroke:none"
             id="path4194"
             inkscape:connector-curvature="0" />
          <path
             d="m 1446.05,2471.09 c -64.23,128.47 -151.82,335.18 -194.64,459.37 -42.82,124.18 -165.45,295.86 -272.504,381.5 -107.058,85.65 -138.59,236.31 -70.074,334.8 68.516,98.49 124.578,238.63 124.578,311.43 0,72.8 -52.558,132.36 -116.793,132.36 -64.23,0 -205.894,-116.05 -314.804,-257.88 L 328.266,3476.42 c -108.911,-141.84 -198.02,-303.43 -198.02,-359.1 0,-55.67 39.09,-242.21 86.863,-414.54 l 262.286,-946.1 c 47.773,-172.33 46.132,-453.85 -3.641,-625.61 L 392.039,842.211 c -4.855,-16.75 -8.187,-33.191 -10.16,-49.25 L 0,0 l 929.457,0 230.553,760.461 -12.77,1.391 c 14.46,26.128 25.91,53.558 33.59,81.867 l 94.45,348.131 c 46.82,172.59 130.68,362.85 186.35,422.8 55.67,59.95 101.21,224.62 101.21,365.93 0,141.32 -52.55,362.05 -116.79,490.51"
             style="fill:#f8c19a;fill-opacity:1;fill-rule:nonzero;stroke:none"
             id="path4196"
             inkscape:connector-curvature="0" />
          <path
             d="m 6189.61,1957.81 c 0,-178.83 -146.31,-325.14 -325.13,-325.14 l -4690.82,0 c -178.824,0 -325.137,146.31 -325.137,325.14 l 0,3522.94 c 0,178.82 146.313,325.14 325.137,325.14 l 4690.82,0 c 178.82,0 325.13,-146.32 325.13,-325.14 l 0,-3522.94"
             style="fill:#3b393d;fill-opacity:1;fill-rule:nonzero;stroke:none"
             id="path4198"
             inkscape:connector-curvature="0" />
          <path
             d="m 6189.61,1957.81 c 0,-178.83 -146.31,-325.14 -325.13,-325.14 l -4690.82,0 c -178.824,0 -325.137,146.31 -325.137,325.14 l 0,3522.94 c 0,178.82 146.313,325.14 325.137,325.14 l 4690.82,0 c 178.82,0 325.13,-146.32 325.13,-325.14 l 0,-3522.94 z"
             style="fill:none;stroke:#3b393d;stroke-width:13.54740047;stroke-linecap:butt;stroke-linejoin:miter;stroke-miterlimit:10;stroke-dasharray:none;stroke-opacity:1"
             id="path4200"
             inkscape:connector-curvature="0" />
          <path
             d="m 1284.53,2081.66 4469.08,0 0,3306.39 -4469.08,0 0,-3306.39 z"
             style="fill:#ffffff;fill-opacity:1;fill-rule:nonzero;stroke:none"
             id="path4202"
             inkscape:connector-curvature="0" />
          <path
             d="m 1284.53,2864.1 4469.08,0 0,2523.95 -4469.08,0 0,-2523.95 z"
             style="fill:#f36460;fill-opacity:1;fill-rule:nonzero;stroke:none"
             id="path4204"
             inkscape:connector-curvature="0" />
          <path
             d="m 4163.94,4090.55 c 0,-356.15 -288.72,-644.87 -644.87,-644.87 -356.15,0 -644.87,288.72 -644.87,644.87 0,356.15 288.72,644.87 644.87,644.87 356.15,0 644.87,-288.72 644.87,-644.87"
             style="fill:#ffffff;fill-opacity:1;fill-rule:nonzero;stroke:none"
             id="path4206"
             inkscape:connector-curvature="0" />
          <path
             d="m 4163.94,4090.55 c 0,-356.15 -288.72,-644.87 -644.87,-644.87 -356.15,0 -644.87,288.72 -644.87,644.87 0,356.15 288.72,644.87 644.87,644.87 356.15,0 644.87,-288.72 644.87,-644.87 z"
             style="fill:none;stroke:#ef3b3a;stroke-width:153.60800171;stroke-linecap:butt;stroke-linejoin:miter;stroke-miterlimit:10;stroke-dasharray:none;stroke-opacity:1"
             id="path4208"
             inkscape:connector-curvature="0" />
          <path
             d="m 3416.15,4390.91 0,-600.73 392.87,300.37 -392.87,300.36"
             style="fill:#ef3b3a;fill-opacity:1;fill-rule:nonzero;stroke:none"
             id="path4210"
             inkscape:connector-curvature="0" />
          <path
             d="m 1562.84,2655.2 0,-258.93 169.34,129.46 -169.34,129.47"
             style="fill:#ef3b3a;fill-opacity:1;fill-rule:nonzero;stroke:none"
             id="path4212"
             inkscape:connector-curvature="0" />
          <path
             d="m 1832.91,2395.12 3292.01,0 0,271.098 -3292.01,0 0,-271.098 z"
             style="fill:#ffffff;fill-opacity:1;fill-rule:nonzero;stroke:none"
             id="path4214"
             inkscape:connector-curvature="0" />
          <path
             d="m 1832.91,2395.12 3292.01,0 0,271.098 -3292.01,0 0,-271.098 z"
             style="fill:none;stroke:#bd1c2d;stroke-width:13.54740047;stroke-linecap:butt;stroke-linejoin:miter;stroke-miterlimit:10;stroke-dasharray:none;stroke-opacity:1"
             id="path4216"
             inkscape:connector-curvature="0" />
          <path
             d="m 5341.71,2418.14 -159.17,90.58 0,35.67 159.17,98.81 0,-225.06"
             style="fill:#ef3b3a;fill-opacity:1;fill-rule:nonzero;stroke:none"
             id="path4218"
             inkscape:connector-curvature="0" />
          <path
             d="m 5368.8,2492.71 27.1016,0 0,66.0508 -27.1016,0 0,-66.0508 z"
             style="fill:#ef3b3a;fill-opacity:1;fill-rule:nonzero;stroke:none"
             id="path4220"
             inkscape:connector-curvature="0" />
          <path
             d="m 5409.73,2451.42 27.1016,0 0,151.809 -27.1016,0 0,-151.809 z"
             style="fill:#ef3b3a;fill-opacity:1;fill-rule:nonzero;stroke:none"
             id="path4222"
             inkscape:connector-curvature="0" />
          <path
             d="m 5450.39,2431.44 27.1016,0 0,191.77 -27.1016,0 0,-191.77 z"
             style="fill:#ef3b3a;fill-opacity:1;fill-rule:nonzero;stroke:none"
             id="path4224"
             inkscape:connector-curvature="0" />
          <path
             d="m 1871.73,2437.87 2181.13,0 0,191.77 -2181.13,0 0,-191.77 z"
             style="fill:#ef3b3a;fill-opacity:1;fill-rule:nonzero;stroke:none"
             id="path4226"
             inkscape:connector-curvature="0" />
          <path
             d="m 6496.5,2423.83 c 105.59,65.36 88.24,222.03 -38.54,348.14 l -15.61,15.53 c -126.79,126.11 -331.51,335.16 -454.94,464.56 l -177.23,185.79 c -123.43,129.4 -274.78,183.49 -336.33,120.21 -61.55,-63.29 -60.7,-197.78 1.88,-298.87 62.58,-101.09 191.95,-243.51 287.5,-316.5 95.54,-72.98 198.68,-199.65 229.2,-281.49 30.51,-81.84 113.22,-195.46 183.78,-252.5 70.57,-57.05 214.7,-50.24 320.29,15.13"
             style="fill:#f8c19a;fill-opacity:1;fill-rule:nonzero;stroke:none"
             id="path4228"
             inkscape:connector-curvature="0" />
          <path
             d="m 538.016,2455.64 c -105.59,65.37 -88.25,222.03 38.535,348.14 l 15.613,15.53 c 126.785,126.11 331.508,335.16 454.936,464.56 l 177.23,185.79 c 123.43,129.4 274.78,183.49 336.33,120.21 61.55,-63.29 60.71,-197.78 -1.87,-298.87 -62.58,-101.09 -191.96,-243.51 -287.5,-316.5 -95.55,-72.98 -198.69,-199.65 -229.2,-281.49 -30.52,-81.83 -113.223,-195.46 -183.789,-252.5 -70.571,-57.05 -214.696,-50.24 -320.285,15.13"
             style="fill:#f8c19a;fill-opacity:1;fill-rule:nonzero;stroke:none"
             id="path4230"
             inkscape:connector-curvature="0" />
          <path
             d="m 5590.38,3542.71 c 0,0 -105.13,-61.52 -90.86,-117.41 0,0 40.6,-85.02 96.08,-86.49 l 117.22,125.14 c 0,0 -88.41,102.36 -122.44,78.76"
             style="fill:#fae0c4;fill-opacity:1;fill-rule:nonzero;stroke:none"
             id="path4232"
             inkscape:connector-curvature="0" />
          <path
             d="m 1448.65,3562.56 c 0,0 92.69,-79.04 68.84,-131.55 0,0 -54.9,-76.57 -109.78,-68.27 l -93.42,143.78 c 0,0 105.01,85.24 134.36,56.04"
             style="fill:#fae0c4;fill-opacity:1;fill-rule:nonzero;stroke:none"
             id="path4234"
             inkscape:connector-curvature="0" />
          <path
             d="m 1284.53,1587.67 c 0,0 -472.913,-108.38 -509.038,388.36 0,0 -83.777,-578.02 509.038,-388.36"
             style="fill:#fbddbe;fill-opacity:1;fill-rule:nonzero;stroke:none"
             id="path4236"
             inkscape:connector-curvature="0" />
          <path
             d="m 287.785,3342.75 c 0,0 -234.8202,-177.58 -45.156,-582.49 0,0 -126.445,386.74 45.156,582.49"
             style="fill:#f3d8b3;fill-opacity:1;fill-rule:nonzero;stroke:none"
             id="path4238"
             inkscape:connector-curvature="0" />
          <path
             d="m 6644.98,3249.98 c 0,0 248.15,-158.42 91.17,-577.08 0,0 95.4,395.55 -91.17,577.08"
             style="fill:#fae0c4;fill-opacity:1;fill-rule:nonzero;stroke:none"
             id="path4240"
             inkscape:connector-curvature="0" />
          <path
             d="m 5740.05,1587.67 c 0,0 472.91,-108.38 509.04,388.36 0,0 83.77,-578.02 -509.04,-388.36"
             style="fill:#fae0c4;fill-opacity:1;fill-rule:nonzero;stroke:none"
             id="path4242"
             inkscape:connector-curvature="0" />
        </g>
      </g>
      <text
         sodipodi:linespacing="125%"
         id="text4271"
         y="299.79855"
         x="371.53088"
         style="font-style:normal;font-weight:normal;font-size:80px;line-height:125%;font-family:Sans;text-align:center;letter-spacing:0px;word-spacing:0px;text-anchor:middle;fill:#ffffff;fill-opacity:1;stroke:#000000;stroke-width:3;stroke-linecap:butt;stroke-linejoin:miter;stroke-miterlimit:4;stroke-dasharray:none;stroke-opacity:1"
         xml:space="preserve"
         inkscape:export-xdpi="74.500755"
         inkscape:export-ydpi="74.500755"><tspan
           id="tspan4279"
           style="font-style:normal;font-variant:normal;font-weight:bold;font-stretch:condensed;font-size:40px;line-height:125%;font-family:Amatic;-inkscape-font-specification:'Amatic Bold Condensed';letter-spacing:5px;word-spacing:0px;fill:#666666;fill-opacity:1;stroke:none;stroke-width:3;stroke-miterlimit:4;stroke-dasharray:none;stroke-opacity:1"
           y="299.79855"
           x="374.03088"
           sodipodi:role="line">Cybersecurity &amp; Crime</tspan></text>
      <text
         sodipodi:linespacing="125%"
         id="text4283"
         y="223.71225"
         x="371.89221"
         style="font-style:normal;font-weight:normal;font-size:80px;line-height:125%;font-family:Sans;text-align:center;letter-spacing:0px;word-spacing:0px;text-anchor:middle;fill:#000000;fill-opacity:1;stroke:#ffffff;stroke-width:2;stroke-linecap:butt;stroke-linejoin:miter;stroke-miterlimit:4;stroke-dasharray:none;stroke-opacity:1"
         xml:space="preserve"
         inkscape:export-xdpi="74.500755"
         inkscape:export-ydpi="74.500755"><tspan
           style="font-style:normal;font-variant:normal;font-weight:bold;font-stretch:condensed;font-size:120px;font-family:Amatic;-inkscape-font-specification:'Amatic Bold Condensed';stroke:#ffffff;stroke-width:2;stroke-miterlimit:4;stroke-dasharray:none;stroke-opacity:1"
           y="223.71225"
           x="371.89221"
           id="tspan4285"
           sodipodi:role="line">The Internet</tspan></text>
      <flowRoot
         xml:space="preserve"
         id="flowRoot4384"
         style="fill:black;stroke:none;stroke-opacity:1;stroke-width:1px;stroke-linejoin:miter;stroke-linecap:butt;fill-opacity:1;font-family:Sans;font-style:normal;font-weight:normal;font-size:80px;line-height:125%;letter-spacing:0px;word-spacing:0px;text-anchor:middle;text-align:center"><flowRegion
           id="flowRegion4386"><rect
             id="rect4388"
             width="749.5332"
             height="269.71072"
             x="112.12693"
             y="90.696983" /></flowRegion><flowPara
           id="flowPara4390"></flowPara></flowRoot>    </g>
  </g>
</svg>
