<?xml version="1.0" standalone="no"?>
<!DOCTYPE svg PUBLIC "-//W3C//DTD SVG 1.1//EN" "http://www.w3.org/Graphics/SVG/1.1/DTD/svg11.dtd" >
<svg xmlns="http://www.w3.org/2000/svg">
<metadata></metadata>
<defs>
<font id="almendrabold" horiz-adv-x="1327" >
<font-face units-per-em="2048" ascent="1638" descent="-410" />
<missing-glyph horiz-adv-x="368" />
<glyph unicode="&#x2e;&#x2e;&#x2e;" horiz-adv-x="1466" d="M70 174q27 44 83.5 93t110.5 73q49 -27 107 -75.5t86 -90.5q-22 -44 -83.5 -108.5t-109.5 -96.5q-47 32 -108.5 96t-85.5 109zM539 174q27 44 83.5 93t110.5 73q49 -27 107 -75.5t86 -90.5q-22 -44 -83.5 -108.5t-109.5 -96.5q-47 32 -108.5 96t-85.5 109zM1010 174 q27 44 83.5 93t110.5 73q49 -27 107 -75.5t86 -90.5q-22 -44 -83.5 -108.5t-109.5 -96.5q-47 32 -108.5 96t-85.5 109z" />
<glyph unicode="&#xfb01;" horiz-adv-x="1415" d="M43 903q0 43 6 55q42 16 148 46q54 145 180 267.5t274 184.5q119 0 241 -24.5t216 -75.5l-2 -25q-67 -39 -122 -98t-87 -129l-20 2q-150 167 -347 184q-29 -146 -34 -286q174 0 253.5 1t216.5 7.5t267 21.5l14 -14q-43 -183 -43 -510q0 -345 19 -438q64 -18 135 -49 l-6 -41q-138 18 -308 18q-198 0 -303 -14l-6 41q38 21 127 51q10 52 19.5 218t9.5 363q0 90 -10 203q-325 31 -385 33v-346q0 -327 34 -672q-150 14 -264 17q-58 -108 -92 -304l-51 4q3 58 30.5 412.5t28.5 546.5l2 346h-137z" />
<glyph unicode="&#xfb02;" horiz-adv-x="1406" d="M43 903q0 43 6 55q42 16 148 46q54 145 180 267.5t274 184.5q194 0 359 -59q183 16 309 61l12 -39q-37 -33 -102 -69q-37 -167 -37 -688q0 -500 18 -590q67 -19 136 -49l-7 -41q-138 18 -307 18q-198 0 -303 -14l-6 41q38 21 127 51q11 56 22 222t11 359q0 309 -6 488 q-70 58 -163 97t-184 46q-25 -130 -32 -282l221 10l10 -10q-24 -77 -29 -129q-194 16 -204 16v-346q0 -327 34 -672q-150 14 -264 17q-58 -108 -92 -304l-51 4q3 58 30.5 412.5t28.5 546.5l2 346h-137z" />
<glyph horiz-adv-x="0" />
<glyph horiz-adv-x="682" />
<glyph unicode=" "  horiz-adv-x="368" />
<glyph unicode="&#x09;" horiz-adv-x="368" />
<glyph unicode="&#xa0;" horiz-adv-x="368" />
<glyph unicode="!" horiz-adv-x="532" d="M70 174q27 44 83.5 93t110.5 73q49 -27 107 -75.5t86 -90.5q-22 -44 -83.5 -108.5t-109.5 -96.5q-47 32 -108.5 96t-85.5 109zM131 1389q119 70 266 67q79 -49 121 -123q-82 -224 -127.5 -400.5t-87.5 -428.5l-94 -10z" />
<glyph unicode="&#x22;" horiz-adv-x="858" d="M164 1333q44 28 111 45t122 17l31 -41q-50 -144 -78 -270t-53 -300l-88 -10zM504 1333q44 28 111 45t122 17l31 -41q-50 -144 -78 -270t-53 -300l-88 -10z" />
<glyph unicode="#" horiz-adv-x="1126" d="M82 289l20 137l95 -8q104 -7 125 -8l30 243l-198 6l-17 13l21 139l92 -8q94 -7 119 -8l51 407q69 0 119 10l8 -6q-45 -243 -66 -415l207 -9l51 420q69 0 119 10l8 -6q-44 -226 -65 -426q185 -4 229 -2l14 -12l-20 -129l-240 6l-28 -248q177 -4 219 -2l14 -10l-20 -131 l-230 6l-53 -446h-10q-87 19 -113 43q38 211 62 407l-205 4l-53 -454h-11q-85 19 -112 43q43 242 61 413l-207 6zM436 403l205 -6l31 250l-207 4z" />
<glyph unicode="$" horiz-adv-x="1024" d="M145 16v33q51 67 79.5 155.5t33.5 178.5h49q0 -8 0.5 -18t2 -20t3 -20.5t3.5 -20.5t3.5 -19t3 -16.5t3 -13t2.5 -8.5v-3q66 -60 147 -86l6 121l6 129q-22 8 -59 21.5t-60.5 22t-54.5 20.5t-50 21.5t-37.5 21t-27 22.5t-8.5 22q0 89 60.5 189.5t146 178.5t176.5 126 q0 22 -1 68.5t-1 72.5q42 18 80 47l13 -6q-11 -104 -15 -164q184 -4 309 -49v-33q-53 -54 -81 -101.5t-48 -119.5l-20 -4q-83 69 -170 106l-6 -129l-4 -65q20 -7 58 -21t59.5 -22.5t53 -21t49.5 -22t36 -21t26.5 -22.5t8.5 -22q0 -145 -114.5 -291.5t-268.5 -236.5l-11 -225 l-12 -2q-41 3 -72 34l19 166q-184 7 -316 47zM432 809q0 -49 131 -107l8 191q-24 6 -51 6q-38 0 -63 -25t-25 -65zM545 141h24q53 0 81 39t28 99q0 46 -121 100z" />
<glyph unicode="%" horiz-adv-x="1523" d="M2 797q19 85 61.5 157.5t94.5 117.5t106 70t101 25q44 0 225 -30.5t323 -30.5q63 0 106.5 16t70.5 62l12 20q108 5 162 21l6 -6q-137 -198 -297 -445l-625 -979h-10q-93 41 -109 66q193 261 250 348l359 561q90 134 192 309l-8 2q-29 -30 -71.5 -47.5t-84.5 -17.5 q-113 0 -305 88l-6 -6q121 -94 168 -262q-19 -85 -60.5 -157.5t-92.5 -118t-104.5 -70.5t-100.5 -25q-119 0 -221 93.5t-142 238.5zM279 815q0 -92 23.5 -172t62.5 -102q39 22 62.5 102t23.5 172q0 94 -23 174.5t-63 102.5q-40 -22 -63 -102.5t-23 -174.5zM803 301 q25 112 90 200t137 129.5t135 41.5q119 0 219 -93t140 -239q-19 -85 -61 -157.5t-92.5 -118t-104.5 -70.5t-101 -25q-118 0 -220 93.5t-142 238.5zM1079 319q0 -92 23.5 -172t62.5 -102q39 22 62.5 102t23.5 172q0 94 -23 174.5t-63 102.5q-40 -22 -63 -102.5t-23 -174.5z " />
<glyph unicode="&#x26;" horiz-adv-x="1404" d="M70 391q0 120 81.5 208.5t213.5 145.5q-46 74 -85.5 180t-39.5 177q58 74 197.5 157.5t234.5 104.5q61 0 118 -10.5t108.5 -32.5t82.5 -63t31 -95q0 -80 -68 -150t-158 -106l2 -10l478 37l8 -8q-17 -46 -29 -105q-252 17 -266 17v-11q87 -15 141 -58t54 -118 q0 -164 -138 -309q38 -59 113 -142t131 -130q60 -7 111 -21l-7 -53q-93 6 -172 6q-235 0 -378 -33l-9 29q13 21 13 49q0 14 -7 34.5t-14 29.5q-95 -88 -209 -142q-86 0 -164.5 16.5t-147 51t-118.5 83.5t-79 118.5t-29 152.5zM418 483q0 -89 21.5 -160.5t75.5 -120 t134 -48.5q66 0 115 32q-65 71 -163.5 203t-158.5 225q-24 -44 -24 -131zM559 1151q0 -104 141 -341.5t267 -381.5q20 69 20 172q0 244 -270 254l-15 39q93 77 93 184q0 70 -41 116t-109 46q-49 0 -72 -10q-14 -38 -14 -78z" />
<glyph unicode="'" horiz-adv-x="532" d="M164 1333q44 28 111 45t122 17l31 -41q-50 -144 -78 -270t-53 -300l-88 -10z" />
<glyph unicode="(" horiz-adv-x="608" d="M63 537q0 256 124.5 502.5t324.5 416.5l31 -29q-291 -398 -291 -890q0 -258 74 -509t213 -442l-27 -26q-196 166 -322.5 438.5t-126.5 538.5z" />
<glyph unicode=")" horiz-adv-x="608" d="M66 1427l30 29q200 -170 324.5 -416.5t124.5 -502.5q0 -266 -126.5 -538.5t-322.5 -438.5l-26 26q139 191 212.5 441.5t73.5 509.5q0 493 -290 890z" />
<glyph unicode="*" horiz-adv-x="759" d="M84 1077l2 6q96 0 215 37q-119 37 -215 37l-2 6q4 6 45 47q-45 56 -43 78q4 3 11 4.5t17.5 1t18.5 -0.5t22 -1.5t19 -1.5q16 56 19 62l8 2q44 -84 137 -170q-27 126 -76 207l6 4q12 0 64 -15q23 66 45 76q16 -6 45 -76q52 15 63 15l7 -4q-58 -91 -80 -207q91 82 141 170 l8 -2q3 -6 19 -62q73 9 88 -2q1 -5 -1.5 -11.5t-8 -15.5t-10 -16t-12.5 -18.5t-11 -16.5q41 -41 45 -47l-2 -6q-105 3 -224 -37q119 -40 224 -37l2 -6q-4 -6 -45 -47q3 -5 11 -16.5t12.5 -18.5t10 -16t8 -15.5t1.5 -11.5q-15 -11 -88 -2q-15 -54 -19 -61l-8 -2 q-54 92 -141 170q23 -120 80 -207l-7 -4q-14 0 -63 14q-29 -70 -45 -76q-22 10 -45 76q-49 -14 -64 -14l-6 4q49 79 76 207q-93 -86 -137 -170l-8 2q-4 7 -19 61q-5 0 -19 -1.5t-22 -1.5t-18.5 -0.5t-17.5 1t-11 4.5q-2 22 43 78q-41 41 -45 47z" />
<glyph unicode="+" horiz-adv-x="1179" d="M117 449l18 145q251 -12 375 -14v415l145 19l11 -13q-11 -300 -11 -421v-2q114 -3 224 -3q81 0 174 7l12 -13l-18 -135h-392q0 -247 19 -454l-144 -19l-20 14v459h-377z" />
<glyph unicode="," horiz-adv-x="526" d="M59 -305q65 62 106 144t50 169q-39 32 -83 82t-62 84q27 44 83.5 93t110.5 73q49 -27 107 -75.5t86 -90.5q0 -130 -117.5 -287.5t-247.5 -232.5z" />
<glyph unicode="-" horiz-adv-x="614" d="M49 475l12 135h95q212 0 393 21l16 -10l-12 -127l-485 -31z" />
<glyph unicode="." horiz-adv-x="526" d="M70 174q27 44 83.5 93t110.5 73q49 -27 107 -75.5t86 -90.5q-22 -44 -83.5 -108.5t-109.5 -96.5q-47 32 -108.5 96t-85.5 109z" />
<glyph unicode="/" horiz-adv-x="724" d="M18 -23q51 115 156 388l240 612q83 217 159 453q96 5 142 16l8 -6q-51 -117 -170 -434l-414 -1090h-10q-93 38 -111 61z" />
<glyph unicode="0" horiz-adv-x="1064" d="M8 473q28 128 90 237.5t137.5 178t154.5 107t147 38.5q172 0 316.5 -141.5t203.5 -362.5q-23 -104 -67 -195.5t-98.5 -157t-116.5 -113.5t-123 -71.5t-115 -23.5q-173 0 -321.5 142t-207.5 362zM383 502q0 -146 42 -275t112 -166q69 37 110 166t41 275q0 147 -41 275 t-110 165q-70 -37 -112 -165t-42 -275z" />
<glyph unicode="1" horiz-adv-x="698" d="M18 27q55 22 156 45q19 133 19 436q0 269 -17 418q-105 31 -151 57l8 45q136 -24 373 -24q156 0 243 10l6 -47q-73 -18 -125 -43q-24 -189 -24 -416q0 -306 20 -432q57 -19 117 -47l-6 -41q-111 12 -277 12q-209 0 -335 -18z" />
<glyph unicode="2" horiz-adv-x="933" d="M-14 -31q27 70 88.5 152.5t127 154.5t128 148t103 159.5t40.5 161.5q0 70 -27 104t-92 34q-40 0 -86 -17q-16 -46 -16 -104q0 -55 22 -74l-2 -14q-107 -38 -180 -103q-53 3 -53 60q0 86 63.5 174.5t153.5 148.5t178 80q186 0 290.5 -83t104.5 -255q-211 -227 -516 -434 v-20q43 26 68 32q188 0 395 -34q31 60 49 116l45 -14q-24 -79 -24 -195q0 -92 20 -167l-24 -17q-202 41 -370.5 58.5t-371.5 17.5q-36 -33 -67 -90z" />
<glyph unicode="3" horiz-adv-x="962" d="M14 -96q38 44 61 147t29 191h52q0 -82 4 -129q63 -92 145 -140.5t154 -48.5q56 0 90 27q26 64 26 155q0 146 -66.5 211.5t-213.5 65.5l-27 16l244 346l-4 9q-32 -15 -57 -21q-100 0 -246 15q-31 -72 -47 -130l-45 13q16 98 16 203q0 112 -23 182l25 18q293 -55 666 -55 q66 30 116 80l41 -33l-432 -438q196 -27 300 -137.5t104 -303.5q-82 -117 -229 -228t-279 -155q-79 0 -195.5 34.5t-208.5 76.5v29z" />
<glyph unicode="4" horiz-adv-x="1093" d="M-14 123q152 187 270 395t231 471q81 2 198 17.5t165 35.5l18 -8q-14 -81 -23 -214.5t-9 -227.5q0 -182 4 -330q81 0 114 16t58 78l39 -8q-23 -120 -23 -276l-10 -4q-74 6 -176 6q0 -116 16 -207q44 -21 111 -41l-11 -49q-123 18 -278 18q-182 0 -338 -24l-8 45 q48 25 172 55q14 92 14 203h-518zM268 285q124 -14 252 -17l6 549h-14q-102 -302 -244 -532z" />
<glyph unicode="5" horiz-adv-x="997" d="M29 -96q38 44 61 147t29 191h51q0 -82 4 -129q63 -92 145 -140.5t154 -48.5q56 0 90 27q27 66 27 155q0 287 -260 287q-84 0 -148 -37l-24 21l20 424q8 139 -4 225l45 8l21 -57q331 6 575 55l23 -18q-27 -82 -27 -201q0 -102 12 -176l-49 -10q-19 67 -41 127 q-180 -17 -375 -17l-47 21l-8 -6l-45 -252q113 65 238 88q207 -9 325.5 -124t118.5 -317q-82 -117 -229 -228t-279 -155q-79 0 -195 34.5t-208 76.5v29z" />
<glyph unicode="6" horiz-adv-x="1021" d="M49 373q0 142 60 277t161 240.5t230.5 185t271.5 122.5l27 -37q-215 -135 -313.5 -304.5t-98.5 -416.5q0 -67 4.5 -117t17 -102.5t41 -81t70.5 -28.5q56 0 86 26q23 74 23 162q0 54 -3 89t-13 71t-28.5 56t-51 33t-78.5 13v19q87 87 127 184q178 0 280.5 -111.5 t102.5 -333.5q-85 -120 -215 -214.5t-267 -135.5q-222 0 -328 105t-106 299z" />
<glyph unicode="7" horiz-adv-x="815" d="M14 -184q37 9 111 49q17 132 80.5 266.5t232.5 403.5l133 210l-8 9q-28 -15 -55 -23q-156 -9 -350 12q-26 -66 -41 -129l-49 11q12 74 12 198q0 115 -27 197l23 18q262 -55 667 -55q23 23 41 53l50 -24q-131 -227 -216 -434q-85 -210 -123 -370t-38 -329q31 -6 89 -23.5 t85 -29.5l-6 -45q-119 14 -281 14q-189 0 -319 -26z" />
<glyph unicode="8" horiz-adv-x="987" d="M61 266q0 143 236 307q-87 60 -136.5 143.5t-49.5 213.5q60 88 185 166t236 102q142 0 227 -51t85 -154q0 -64 -55 -136.5t-134 -127.5q50 -26 83 -46t75 -55.5t66 -72.5t41.5 -93t17.5 -122q-66 -127 -183 -231t-255 -140q-83 0 -159 17t-140 51t-102 93t-38 136z M322 305q0 -91 59.5 -150t150.5 -59q59 0 78 19q19 78 19 149q0 22 -3.5 41t-13.5 37t-18 31.5t-27 29.5t-29.5 25t-36 24.5t-36.5 22t-41.5 23t-40.5 22.5q-61 -105 -61 -215zM408 979q0 -69 39.5 -115t115.5 -88q51 79 51 182q0 54 -35 83.5t-92 29.5q-48 0 -67 -16 q-12 -30 -12 -76z" />
<glyph unicode="9" horiz-adv-x="1021" d="M57 684q85 120 215 214.5t267 135.5q222 0 328 -104.5t106 -298.5q0 -150 -60 -292.5t-161 -254t-230.5 -194.5t-271.5 -126l-27 37q216 136 314 308.5t98 433.5q0 59 -2.5 103.5t-10.5 93.5t-22 80.5t-39 52t-59 20.5q-55 0 -86 -27q-23 -74 -23 -182q0 -54 3 -91 t13 -76t28.5 -62.5t51 -38.5t78.5 -15v-18q-87 -87 -127 -184q-174 0 -278.5 129.5t-104.5 355.5z" />
<glyph unicode=":" horiz-adv-x="526" d="M70 174q27 44 83.5 93t110.5 73q49 -27 107 -75.5t86 -90.5q-22 -44 -83.5 -108.5t-109.5 -96.5q-47 32 -108.5 96t-85.5 109zM70 868q27 44 83.5 93t110.5 73q49 -27 107 -75.5t86 -90.5q-22 -44 -83.5 -108t-109.5 -96q-47 32 -108.5 95.5t-85.5 108.5z" />
<glyph unicode=";" horiz-adv-x="526" d="M59 -305q65 62 106 144t50 169q-39 32 -83 82t-62 84q27 44 83.5 93t110.5 73q49 -27 107 -75.5t86 -90.5q0 -130 -117.5 -287.5t-247.5 -232.5zM70 868q27 44 83.5 93t110.5 73q49 -27 107 -75.5t86 -90.5q-22 -44 -83.5 -108t-109.5 -96q-47 32 -108.5 95.5 t-85.5 108.5z" />
<glyph unicode="&#x3c;" horiz-adv-x="1179" d="M113 455l28 131q137 43 381 135q272 103 496 219l49 -135l-10 -21l-715 -264v-8l715 -262l10 -21l-53 -137q-215 108 -492 219q-226 90 -409 144z" />
<glyph unicode="=" horiz-adv-x="1179" d="M115 291l18 135q346 -18 744 -18q95 0 174 6l12 -13l-19 -125h-913zM115 616l18 136q366 -19 744 -19q95 0 174 6l12 -12l-19 -125h-913z" />
<glyph unicode="&#x3e;" horiz-adv-x="1179" d="M113 229l10 21l715 262v8l-715 264l-10 21l49 135q227 -117 495 -219q244 -92 381 -135l29 -131q-187 -56 -410 -144q-272 -109 -491 -219z" />
<glyph unicode="?" horiz-adv-x="718" d="M-14 1053q0 63 37 131t94.5 122t127.5 94.5t134 55.5q114 0 202.5 -34.5t143.5 -109.5t55 -182q-111 -151 -350 -327q-40 -253 -45 -293l-98 -10l-45 266v39q178 147 178 373q0 127 -119 127q-40 0 -86 -17q-16 -46 -16 -102q0 -57 22 -76l-2 -14q-107 -38 -180 -103 q-53 3 -53 60zM147 174q27 44 84 93t111 73q49 -27 107 -75.5t86 -90.5q-22 -44 -83.5 -108.5t-109.5 -96.5q-47 32 -109 96t-86 109z" />
<glyph unicode="@" horiz-adv-x="1798" d="M86 330q0 203 66 387t183.5 325t287 235.5t370.5 123.5q169 0 307 -38.5t241 -115t159.5 -200.5t56.5 -287q0 -140 -44 -275t-121.5 -243.5t-192 -182t-246.5 -90.5q-40 14 -65 77.5t-33 132.5t-8 147l-21 2q-36 -97 -103.5 -192t-148.5 -167q-102 0 -183 62t-122 158 t-41 204q0 138 70.5 267.5t180.5 223t245 150.5q76 0 177 -17t175 -42q43 50 61 108l49 -14q-43 -180 -43 -655q0 -189 15 -314q112 91 169.5 254.5t57.5 333.5q0 610 -624 610q-98 0 -196 -25t-171 -75q-154 -165 -243 -387t-89 -446q0 -311 150 -481.5t448 -170.5 q129 0 244 45l14 -26q-127 -88 -274 -121q-369 0 -563.5 180t-194.5 539zM754 487q0 -280 88 -280q35 0 87 65.5t99 192.5q0 260 -8 348q-24 30 -63 48t-78 18q-44 0 -84 -11q-41 -160 -41 -381z" />
<glyph unicode="A" horiz-adv-x="1318" d="M-49 37q45 24 115 39l311 1181q-53 13 -121 46l10 53q185 -23 414 -23q310 0 534 23l9 -53q-48 -22 -103 -35q-9 -57 -17.5 -230.5t-8.5 -349.5q0 -422 28 -618q76 -14 123 -35l-6 -53q-148 18 -321 18q-172 0 -295 -18l-9 55q49 25 115 39q18 141 25 395q-55 8 -152 8 q-98 0 -166 -10q-30 -189 -30 -276q0 -70 17 -112.5t69 -62.5l-7 -32q-110 14 -225 14q-191 0 -301 -18zM457 616q74 -8 145 -8q99 0 154 8v52q0 347 -23 546q-28 11 -88 11q-42 0 -84 -11z" />
<glyph unicode="B" horiz-adv-x="1265" d="M43 1274v55q84 0 317.5 9.5t317.5 9.5q49 0 80 -0.5t76.5 -3t75 -7t67 -13t62 -20.5t50 -31t39.5 -42.5t23.5 -55.5t9.5 -71q0 -106 -74 -199t-182 -139v-16q142 0 224.5 -66.5t82.5 -198.5q0 -69 -39 -141.5t-103 -133t-142.5 -111.5t-160.5 -84.5t-153 -45.5 q-77 0 -187 25t-194 57q-30 -38 -51 -98l-51 12q57 260 57 701q0 188 -8.5 349.5t-17.5 225.5q-56 27 -119 33zM526 666q0 -221 15 -478q28 -21 75.5 -34t85.5 -13q78 0 117 27q13 41 22 108.5t9 114.5q0 163 -51.5 236t-196.5 73l10 86h29q78 0 117 27q45 83 45 229 q0 101 -40.5 153t-133.5 52q-53 0 -84 -10q-11 -117 -15 -222.5t-4 -348.5z" />
<glyph unicode="C" horiz-adv-x="1056" d="M61 543q0 290 172 506t461 315q216 0 428 -39l-2 -49q-51 0 -100 -19q-59 -159 -59 -323h-56q-21 78 -24 172q-43 40 -109.5 63t-128.5 23q-96 0 -141 -35q-34 -80 -54 -219t-20 -244q0 -55 0.5 -89t3 -84t7.5 -82t14.5 -72.5t23.5 -66t34.5 -53t47 -42.5t62.5 -25 t79 -10q87 0 156.5 30.5t153.5 94.5l32 -31q-170 -217 -405 -295q-280 0 -428 147t-148 427z" />
<glyph unicode="D" horiz-adv-x="1353" d="M43 1274v55q102 0 327.5 9.5t327.5 9.5q297 0 445.5 -135t148.5 -422q0 -200 -82 -374t-234 -293t-347 -155q-161 0 -396 82q-30 -38 -51 -98l-51 12q57 272 57 701q0 188 -8.5 349.5t-17.5 225.5q-56 27 -119 33zM526 666q0 -212 15 -469q78 -56 176 -56q77 0 133 35 q76 185 76 479q0 71 -5 134.5t-17 133.5t-35 126t-55.5 102t-82.5 71t-113 25q-42 0 -73 -10q-19 -217 -19 -571z" />
<glyph unicode="E" horiz-adv-x="1077" d="M61 543q0 290 172 506t461 315q216 0 428 -39l-2 -49q-51 0 -100 -19q-59 -159 -59 -323h-56q-21 78 -24 172q-43 40 -109.5 63t-128.5 23q-96 0 -141 -35q-28 -64 -46.5 -171t-23.5 -198q75 -20 186 -20q80 0 133 15t93 57l45 -11q-27 -83 -27 -165q0 -78 21 -181 l-52 -8q-30 78 -43 152q-64 10 -170 10q-111 0 -190 -10q0 -82 5 -141.5t21.5 -122.5t45 -102.5t79.5 -65t121 -25.5q87 0 156.5 30.5t153.5 94.5l32 -31q-170 -217 -405 -295q-280 0 -428 147t-148 427z" />
<glyph unicode="F" horiz-adv-x="1021" d="M80 1298l8 56q170 -21 483 -21q97 0 242 8t229 19l13 -43q-47 -63 -65 -140t-21 -194h-56q-18 94 -18 178q-67 35 -195 35q-21 0 -62.5 -4.5t-57.5 -9.5q-17 -217 -17 -441q39 -8 86 -8q80 0 132.5 15t92.5 57l46 -10q-27 -83 -27 -166q0 -82 20 -180l-51 -9 q-30 78 -43 152q-64 10 -170 10q-53 0 -86 -4q3 -362 29 -528q76 -14 123 -35l-6 -53q-148 18 -322 18q-172 0 -295 -18l-8 55q49 25 115 39q26 198 26 592q0 170 -10 343t-20 246q-60 12 -115 41z" />
<glyph unicode="G" horiz-adv-x="1140" d="M2 543q0 290 172 506t461 315q229 0 457 -49l-2 -49q-52 0 -101 -19q-59 -159 -59 -323h-56q-21 78 -24 172q-50 43 -124.5 69.5t-141.5 26.5q-97 0 -142 -35q-34 -79 -53.5 -218t-19.5 -245q0 -55 0.5 -89t3 -84t7.5 -82t14.5 -72.5t23.5 -66t34.5 -53t47 -42.5 t62.5 -25t79 -10t80 6l-10 221q-8 88 -19 138q-45 23 -125 38l6 45q47 -6 91 -6q99 0 209.5 27t185.5 78l31 -35q-49 -42 -70 -80q-30 -313 -45 -610h-45q-22 97 -53 158q-141 -128 -299 -181q-280 0 -428 147t-148 427z" />
<glyph unicode="H" horiz-adv-x="1523" d="M80 1296l8 56q130 -19 295 -19q163 0 319 19l7 -54q-43 -19 -123 -34q-20 -130 -23 -457q85 -19 201 -19q120 0 197 17q-2 235 -23 452q-49 12 -94 39l8 56q128 -19 291 -19q185 0 323 19l7 -54q-53 -20 -144 -34q-10 -60 -20.5 -240t-10.5 -356q0 -417 31 -598 q87 -13 144 -35l-7 -53q-131 18 -319 18q-174 0 -295 -18l-8 55q45 27 94 39q21 218 23 569q-89 14 -197 14q-112 0 -201 -14q3 -404 27 -575q76 -14 123 -35l-6 -53q-148 18 -320 18t-295 -18l-8 55q49 25 115 39q26 198 26 592q0 170 -10 343t-20 246q-66 14 -115 39z" />
<glyph unicode="I" horiz-adv-x="788" d="M80 1296l8 56q130 -19 295 -19q166 0 322 19l6 -54q-43 -19 -123 -34q-8 -56 -16.5 -228t-8.5 -348q0 -415 29 -618q76 -14 123 -35l-6 -53q-148 18 -322 18q-172 0 -295 -18l-8 55q49 25 115 39q26 198 26 592q0 170 -10 343t-20 246q-66 14 -115 39z" />
<glyph unicode="J" horiz-adv-x="772" d="M-59 -330q163 124 223.5 279t60.5 387v389q0 151 -8 318.5t-16 220.5q-80 15 -123 34l6 54q156 -19 322 -19q164 0 294 19l9 -56q-49 -25 -115 -39q-10 -75 -20.5 -232.5t-10.5 -299.5q0 -227 9 -405t18 -244q-106 -135 -271 -251.5t-344 -197.5z" />
<glyph unicode="K" horiz-adv-x="1372" d="M80 1296l8 56q130 -19 295 -19q157 0 293 19l6 -54q-22 -12 -94 -34q-8 -55 -16.5 -234t-8.5 -356q103 136 167 232.5t91 157t34 92t7 67.5q0 33 -9.5 52.5t-35.5 39.5l6 33q118 -15 256 -15q204 0 297 19l8 -56q-46 -24 -114 -39l-375 -383l420 -798q70 -15 115 -39 l-9 -55q-101 18 -309 18q-141 0 -258 -10l-6 37q15 15 26 51.5t11 79.5q0 65 -34.5 168t-143.5 358l-144 -147q5 -295 29 -467q76 -14 123 -35l-6 -53q-148 18 -322 18q-172 0 -295 -18l-8 55q49 25 115 39q26 198 26 592q0 170 -10 343t-20 246q-66 14 -115 39z" />
<glyph unicode="L" horiz-adv-x="983" d="M80 35q55 29 115 41q30 229 30 592q0 170 -10 343t-20 246q-66 14 -115 39l8 56q130 -19 295 -19q166 0 322 19l6 -54q-43 -19 -123 -34q-8 -56 -16.5 -228t-8.5 -348q0 -372 17 -545q40 -14 108 -14q116 0 170 29q21 73 31 184h59q0 -230 84 -326l-12 -43 q-85 11 -222.5 19t-232.5 8q-315 0 -477 -20z" />
<glyph unicode="M" horiz-adv-x="1734" d="M-8 39q43 22 114 37l195 1181q-66 14 -115 39l9 56q128 -19 290 -19q165 0 293 15l6 -35q-69 -17 -69 -70q0 -18 5 -48.5t17.5 -86.5t27 -119t40.5 -177.5t51 -231.5l12 -58l21 6q2 36 4 52.5t44.5 187.5t127.5 475q0 52 -53 68l6 35q114 -13 264 -13q190 0 303 17 l10 -52q-43 -22 -96 -36q-12 -58 -12 -152q0 -166 35 -521.5t67 -518.5q87 -13 144 -35l-7 -53q-131 18 -305 18t-295 -18l-8 55q45 27 94 39q-3 476 -67 901l-15 2q-120 -375 -151 -516t-31 -248q-176 -61 -307 -154l-27 15q2 23 2 67q0 151 -68 397.5t-145 438.5l-16 -2 l-25 -266q-20 -229 -20 -488q0 -72 17.5 -122.5t68.5 -77.5l-6 -33q-95 10 -201 10q-112 0 -221 -16z" />
<glyph unicode="N" horiz-adv-x="1443" d="M80 1296l8 56q122 -19 303 -19q183 0 295 15l6 -37q-21 -6 -35 -24.5t-14 -39.5q0 -26 2.5 -42t22 -69.5t59.5 -128t120 -213t197 -329.5l9 4v193q0 102 -1.5 172t-6 139.5t-13.5 114t-22.5 86t-34.5 66t-48.5 42.5t-64.5 27l6 43q126 -19 256 -19q132 0 262 19l7 -54 q-53 -20 -144 -34q-10 -50 -20 -233.5t-10 -362.5q0 -423 30 -598q74 -11 144 -35l-7 -53q-126 18 -260 18q-131 0 -239 -12q0 61 -30.5 139t-134 265t-323.5 552l-8 -4v-158q0 -319 22.5 -483t98.5 -229q76 -14 123 -35l-6 -53q-22 2 -58 6.5t-54 6.5t-56 3.5t-88 1.5 q-158 0 -281 -18l-8 55q49 25 115 39q8 62 17 233t9 359q0 135 -10.5 329.5t-19.5 259.5q-66 14 -115 39z" />
<glyph unicode="O" d="M61 543q0 290 171.5 506t459.5 315q283 0 428.5 -144.5t145.5 -426.5q0 -294 -160 -510t-442 -314q-282 0 -442.5 158t-160.5 416zM428 694q0 -63 4.5 -122t15.5 -124t32 -118t50.5 -96.5t75 -68t101.5 -24.5q66 0 116 35q38 88 57 216t19 243q0 64 -2 113t-8.5 110 t-18 105.5t-32 90t-49.5 74t-71.5 46.5t-96.5 18q-70 0 -117 -33q-38 -90 -57 -218.5t-19 -246.5z" />
<glyph unicode="P" horiz-adv-x="1196" d="M80 1274v55q108 0 324.5 9t310.5 10h20q78 0 140 -7q70 -8 135 -30t107.5 -58.5t67.5 -97.5t25 -143q0 -96 -44 -179t-116 -139t-165 -87.5t-191 -31.5q-29 0 -53 3l8 94h25q168 0 168 309q0 124 -40.5 195t-142.5 71q-37 0 -75 -10q-21 -189 -21 -549q0 -415 29 -618 q76 -14 123 -35l-6 -53q-148 18 -322 18q-172 0 -295 -18l-8 55q49 25 115 39q26 198 26 592q0 321 -28 573q-57 28 -117 33z" />
<glyph unicode="Q" d="M76 543q0 290 167.5 506t450.5 315q277 0 419 -144.5t142 -426.5q0 -266 -129 -469.5t-360 -313.5q83 -10 263.5 -79.5t262.5 -77.5q46 15 90 45l35 -43q-90 -69 -148 -139t-124 -183l-49 41q-117 93 -269.5 160t-277.5 67q-135 0 -223 -73l-37 32q49 63 133.5 121.5 t165.5 91.5q-243 23 -377.5 176.5t-134.5 393.5zM434 694q0 -63 4.5 -122t15.5 -124t31.5 -118t49.5 -96.5t73 -68t99 -24.5q67 0 114 35q38 88 57 216t19 243q0 64 -1.5 113t-8 110t-18 105.5t-32 90t-49 74t-70.5 46.5t-95 18q-68 0 -115 -33q-37 -90 -55.5 -219 t-18.5 -246z" />
<glyph unicode="R" horiz-adv-x="1341" d="M80 1274v55q102 0 318 9.5t317 9.5q91 0 160.5 -8t135 -29.5t108 -58.5t68 -97.5t25.5 -142.5q0 -110 -62.5 -196.5t-168.5 -141.5l295 -598q70 -15 115 -39l-9 -55q-101 18 -299 18q-130 0 -247 -10l-7 37q15 15 26 51.5t11 79.5q0 139 -123 465q-50 8 -102 8l8 84h23 q61 0 100.5 41t53.5 97.5t14 127.5q0 266 -181 266q-37 0 -75 -10q-21 -189 -21 -549q0 -415 29 -618q76 -14 123 -35l-6 -53q-148 18 -322 18q-172 0 -295 -18l-8 55q49 25 115 39q26 198 26 592q0 321 -28 573q-57 28 -117 33z" />
<glyph unicode="S" horiz-adv-x="952" d="M-12 -20q75 79 105.5 184.5t39.5 245.5h57q0 -17 1 -38.5t3 -39.5t3.5 -33t2.5 -23.5t1 -7.5q124 -112 270 -112q172 0 172 147q0 34 -40.5 77t-101 83.5t-131 88t-131 90.5t-101 91.5t-40.5 89.5q0 89 42 177t111.5 158t155 123.5t175.5 82.5q193 0 354 -45v-41 q-54 -50 -84 -145t-35 -191h-55q0 104 -12 168q-44 38 -103.5 59t-118.5 21q-70 0 -120 -33t-50 -94q0 -34 42 -76.5t104.5 -82t135.5 -86.5t135.5 -89.5t104.5 -90.5t42 -89q0 -102 -78.5 -226.5t-190 -220.5t-213.5 -133q-167 0 -325 47q-36 -17 -86 -75z" />
<glyph unicode="T" horiz-adv-x="1134" d="M-47 1321l12 43q248 -31 602 -31q400 0 602 29l13 -43q-48 -63 -65.5 -138t-20.5 -190h-56q-18 95 -18 178q-66 35 -174 35q-44 0 -84 -8q-16 -222 -16 -508q0 -422 28 -618q76 -14 123 -35l-6 -53q-148 18 -322 18q-172 0 -295 -18l-8 55q49 25 115 39q27 206 27 592 q0 253 -23 522q-40 14 -100 14q-101 0 -156 -28q-23 -85 -29 -185h-59q-3 112 -22.5 189t-67.5 141z" />
<glyph unicode="U" horiz-adv-x="1449" d="M72 1296l8 56q152 -19 305 -19q131 0 231 15l9 -35q-50 -28 -68.5 -69t-24.5 -120q-22 -270 -22 -559v-70t2 -64t5 -62.5t9.5 -54t16 -50t23.5 -38.5t32.5 -31t43.5 -17.5t56 -7.5q93 0 183 70q6 88 6 428q0 170 -10.5 342t-20.5 247q-66 14 -115 39l9 56 q130 -19 294 -19q166 0 322 19l6 -54q-43 -19 -123 -34q-8 -55 -16 -226.5t-8 -349.5q0 -422 28 -618q76 -14 123 -35l-6 -53q-18 2 -48.5 6t-40.5 5l-30 3t-34 2.5t-36 1t-51 0.5q-151 0 -274 -18l-8 36q19 28 26 117q-103 -100 -268 -166q-129 0 -216 32t-137 101 t-70.5 162.5t-20.5 229.5q0 117 14 370.5t14 278.5q0 74 -14 117q-71 16 -104 36z" />
<glyph unicode="V" horiz-adv-x="1236" d="M-37 1296l8 56q130 -19 314 -19q156 0 317 19l6 -54q-58 -22 -123 -36q38 -422 220 -1100q159 612 159 899q0 97 -27 157t-94 91l7 41q150 -17 258 -17q132 0 262 19l8 -56q-44 -17 -115 -32q37 -73 37 -189q0 -150 -88 -365.5t-326 -643.5q82 -18 138 -35l-9 -49 q-123 18 -329 18q-173 0 -293 -10l-6 33q69 17 69 61q0 70 -44 277t-177 722q-29 114 -67 179q-66 14 -105 34z" />
<glyph unicode="W" horiz-adv-x="1882" d="M-37 1296l8 56q184 -21 637 -21q412 0 652 21l6 -54q-58 -22 -123 -36q38 -428 219 -1100q147 629 147 899q0 97 -26.5 157t-93.5 91l6 41q150 -17 258 -17q132 0 262 19l8 -56q-44 -17 -115 -32q37 -73 37 -189q0 -147 -85 -360.5t-316 -648.5q78 -17 137 -35l-8 -49 q-123 18 -322 18q-158 0 -286 -16l-7 32q28 7 49 25.5t21 42.5q0 125 -76 463q-38 -113 -166 -481q40 -26 97 -35l-9 -49q-123 18 -329 18q-132 0 -252 -10l-6 33q69 17 69 61q0 70 -44 277t-177 722q-29 114 -67 179q-66 14 -105 34zM487 1239q35 -399 218 -1077 q147 629 147 899q0 115 -30 160t-130 45q-99 0 -205 -27z" />
<glyph unicode="X" horiz-adv-x="1300" d="M-29 35q51 25 127 41q255 381 408 594l-377 592q-67 14 -106 34l8 56q130 -19 313 -19q176 0 371 19l6 -54q-51 -20 -123 -36q0 -77 25.5 -156t117.5 -232q79 165 101 234.5t22 118.5q0 65 -47 88l8 33q123 -15 238 -15q138 0 268 19l8 -56q-61 -28 -114 -39 q-201 -204 -412 -483l422 -702q69 -14 115 -35l-9 -55q-123 18 -288 18q-160 0 -258 -12l-9 30q9 18 9 48q0 78 -40.5 181t-174.5 318q-79 -212 -103 -312.5t-24 -180.5q42 -9 112 -37l-6 -53q-123 18 -276 18q-178 0 -301 -18z" />
<glyph unicode="Y" horiz-adv-x="1159" d="M-45 1296l8 56q138 -19 309 -19q156 0 308 19l6 -54q-36 -16 -123 -34q41 -124 61.5 -183.5t61.5 -163.5t78 -174q85 254 109 344.5t24 147.5q0 58 -45 80l6 33q142 -15 233 -15q121 0 230 19l8 -54q-53 -28 -119 -41l-360 -585q0 -404 26 -602q84 -17 123 -35l-6 -53 q-131 18 -320 18q-174 0 -297 -18l-8 55q47 25 117 39q25 191 25 487v53q-131 275 -199 407t-95.5 171t-62.5 68q-65 17 -98 34z" />
<glyph unicode="Z" horiz-adv-x="1050" d="M-45 0q49 49 156 242l534 929l-10 11h-195q-60 0 -118.5 -20.5t-100.5 -59.5q-23 -81 -53 -141l-49 8q4 78 4 149q0 89 -19 166q-38 21 -96 35l6 47q66 0 344 -27.5t459 -27.5q92 0 141 16t97 59l45 -34q-59 -56 -142 -228l-460 -946l10 -8h141q86 0 133.5 22t79.5 66 q10 45 10 145l58 3q17 -268 160 -416l-43 -31q-17 20 -41 37q-289 47 -693 47q-246 0 -313 -80z" />
<glyph unicode="[" horiz-adv-x="667" d="M166 -422q20 140 20 932q0 788 -20 928l14 10q141 -36 426 -31v-43q-56 -2 -139 -12t-131 -23v-1663q111 -29 270 -34v-43q-285 5 -426 -31z" />
<glyph unicode="\" horiz-adv-x="718" d="M29 1425q11 4 39 12t51 15.5t37 15.5h8q50 -187 141 -458l223 -652q59 -173 148 -393q-7 -9 -23 -18t-29 -15t-34.5 -14t-26.5 -10h-10l-365 1071q-105 308 -159 446z" />
<glyph unicode="]" horiz-adv-x="667" d="M61 -358q160 5 271 34v1663q-48 13 -131.5 23t-139.5 12v43q285 -5 426 31l15 -10q-21 -147 -21 -928q0 -785 21 -932l-15 -10q-141 36 -426 31v43z" />
<glyph unicode="^" horiz-adv-x="1060" d="M92 606q119 208 193 362.5t188 436.5l109 20q118 -290 195 -454t192 -365l-70 -37l-369 557l-368 -557z" />
<glyph unicode="_" horiz-adv-x="1343" d="M14 -385l17 121q366 -19 966 -19q227 0 320 7l12 -13l-16 -110h-1282z" />
<glyph unicode="`" horiz-adv-x="557" d="M0 1278q2 57 17 137t34 111q12 4 33 4q48 0 66 -6q151 -258 407 -396l-20 -49z" />
<glyph unicode="a" horiz-adv-x="1120" d="M49 393q0 138 70.5 267.5t180.5 223t245 150.5q76 0 177 -17t175 -42q20 23 40.5 60.5t29.5 68.5l45 -14q-47 -197 -47 -676q0 -211 16 -332q52 -23 115 -27v-45q-224 0 -453 -41l-14 15q39 166 39 342l-21 2q-36 -97 -103.5 -192t-148.5 -167q-102 0 -183 62t-122 158 t-41 204zM375 487q0 -280 88 -280q35 0 87 65.5t99 192.5q0 260 -8 348q-24 30 -63 48t-78 18q-44 0 -84 -11q-41 -160 -41 -381z" />
<glyph unicode="b" horiz-adv-x="1116" d="M102 1501l50 15q20 -76 63 -127q174 12 367 67l10 -39q-19 -17 -100 -67q-18 -76 -30.5 -313.5t-12.5 -358.5l20 -2q36 96 103.5 191t148.5 167q102 0 183 -62t122 -158t41 -204q0 -138 -70.5 -267.5t-180.5 -223t-245 -150.5q-105 0 -209 22.5t-249 69.5q41 282 41 603 q0 397 -8 547.5t-44 289.5zM475 539q0 -261 8 -349q24 -30 63.5 -47.5t78.5 -17.5q48 0 84 10q41 160 41 381q0 281 -88 281q-35 0 -87.5 -65.5t-99.5 -192.5z" />
<glyph unicode="c" horiz-adv-x="854" d="M49 420q0 95 41.5 191.5t109.5 176t154 143.5t178 103q193 0 347 -53v-33q-101 -91 -133.5 -152t-43.5 -161h-49q-6 79 -20 131q-41 40 -101.5 68t-117.5 34q-37 -195 -37 -362q0 -67 7.5 -117.5t27 -97.5t58.5 -72.5t97 -25.5q62 0 125.5 42.5t98.5 100.5l32 -17 q-56 -114 -140.5 -207t-188.5 -143q-203 0 -324 123t-121 328z" />
<glyph unicode="d" horiz-adv-x="1118" d="M49 393q0 138 70.5 267.5t180.5 223t245 150.5q63 0 137 -12q0 204 -16 321q-52 23 -115 27v45q224 0 453 41l14 -14q-25 -115 -37.5 -264t-15 -252t-2.5 -264q0 -444 18 -580q52 -23 115 -27v-45q-224 0 -453 -41l-14 15q39 166 39 342l-21 2q-36 -97 -103.5 -192 t-148.5 -167q-102 0 -183 62t-122 158t-41 204zM377 487q0 -280 88 -280q35 0 87 65.5t99 192.5q0 260 -8 348q-24 30 -63 48t-78 18q-44 0 -84 -11q-41 -160 -41 -381z" />
<glyph unicode="e" horiz-adv-x="980" d="M49 420q0 95 41.5 192t109.5 176.5t154 143.5t178 102q82 0 145.5 -12t117 -40t82 -80t28.5 -126q0 -66 -18 -139q59 -27 102 -29l-2 -45h-22q-265 0 -588 -69q0 -152 48 -229t177 -77q78 0 153.5 42.5t131.5 109.5l26 -23q-126 -227 -391 -348q-218 0 -345.5 119 t-127.5 332zM377 549q96 41 205 65q0 160 -18.5 215.5t-80.5 55.5q-37 0 -71 -17q-32 -159 -35 -319z" />
<glyph unicode="f" horiz-adv-x="743" d="M43 903q0 43 6 55q42 16 148 46q54 145 180 267.5t274 184.5q170 0 297 -41v-33q-52 -52 -80.5 -98.5t-48.5 -114.5l-20 -4q-72 59 -130 88t-139 37q-29 -146 -34 -282l258 10l10 -10q-24 -77 -29 -129q-133 13 -239 16v-346q0 -327 34 -672q-150 14 -264 17 q-58 -108 -92 -304l-51 4q3 58 30.5 412.5t28.5 546.5l2 346h-137z" />
<glyph unicode="g" horiz-adv-x="1126" d="M49 -313q39 68 130.5 157t182.5 162v8q-138 40 -219.5 143.5t-81.5 243.5q0 100 41 200t110 182t157.5 147.5t185.5 103.5q75 0 175.5 -17t174.5 -42q105 20 185 55l10 -39q-28 -28 -99 -71q-28 -234 -28 -465q0 -275 31 -473q-61 -119 -210.5 -250t-273.5 -172 q-220 0 -471 86v41zM362 -221q32 -29 86.5 -49.5t100.5 -20.5q43 0 84 17q30 130 36.5 243t6.5 391l-19 5q-31 -73 -71.5 -136t-74 -104.5t-65 -88t-53.5 -110t-31 -147.5zM389 510q0 -272 88 -272q34 0 89.5 73t92.5 189q0 218 -6 313q-57 66 -145 66q-43 0 -80 -11 q-39 -166 -39 -358z" />
<glyph unicode="h" horiz-adv-x="1193" d="M2 27q38 21 127 51q11 54 21 221.5t10 362.5q0 402 -7.5 551.5t-43.5 287.5l49 15q20 -76 63 -127q174 12 367 67l10 -39q-19 -17 -100 -67q-18 -76 -30.5 -313.5t-12.5 -358.5l20 -2q41 104 112.5 204t153.5 154q94 0 159 -30t100 -89q34 -59 48 -134q11 -61 12 -141 q0 -18 -1 -36l-17 -526q64 -22 121 -53l-6 -39q-115 14 -280 14q-111 0 -187 -6v43q18 82 29.5 225.5t11.5 267.5q0 143 -12 205t-47 62q-48 0 -105 -71.5t-96 -186.5q0 -379 18 -467q67 -19 136 -49l-7 -41q-138 18 -307 18q-198 0 -303 -14z" />
<glyph unicode="i" horiz-adv-x="671" d="M35 27q38 21 127 51q10 52 19 217.5t9 363.5q0 129 -16 263q-49 22 -115 26v45q244 0 473 41l15 -14q-43 -183 -43 -510q0 -350 18 -438q64 -18 135 -49l-6 -41q-138 18 -307 18q-198 0 -303 -14zM154 1313q27 44 83.5 93t110.5 73q49 -27 107 -75.5t86 -90.5 q-22 -44 -83.5 -108.5t-109.5 -96.5q-47 32 -108.5 96t-85.5 109z" />
<glyph unicode="j" horiz-adv-x="649" d="M-57 -401q239 179 239 571v281q0 337 -16 471q-49 22 -115 26v45q244 0 473 41l15 -14q-43 -183 -43 -510q0 -134 11.5 -261t22.5 -183q-26 -71 -91 -149.5t-147 -145t-167 -121.5t-160 -90zM162 1313q27 44 83.5 93t110.5 73q49 -27 107 -75.5t86 -90.5 q-22 -44 -83.5 -108.5t-109.5 -96.5q-47 32 -108.5 96t-85.5 109z" />
<glyph unicode="k" horiz-adv-x="1146" d="M18 27q38 21 127 51q11 56 22 222t11 359q0 504 -24 654q-55 30 -117 30v46q379 0 577 69l13 -39q-35 -31 -103 -69q-20 -29 -36.5 -228.5t-16.5 -443.5l21 -2q38 101 104 200.5t141 157.5q307 0 307 -274q0 -92 -45.5 -171.5t-124.5 -115.5l46 -129q66 -187 131 -268 q62 -17 110 -17v-43q-289 -12 -411 -41l-19 11q0 40 -5 76t-33 132t-81 234q-50 -4 -73 -4v47q102 9 147 64.5t45 162.5q0 102 -49 121q-73 -48 -117 -115t-78 -165q0 -402 19 -467q64 -18 135 -49l-6 -41q-138 18 -307 18q-198 0 -303 -14z" />
<glyph unicode="l" horiz-adv-x="663" d="M18 27q38 21 127 51q11 56 22 222t11 359q0 504 -24 654q-55 30 -117 30v46q379 0 577 69l13 -39q-35 -31 -103 -69q-37 -167 -37 -688q0 -495 19 -590q64 -18 135 -49l-6 -41q-138 18 -307 18q-198 0 -303 -14z" />
<glyph unicode="m" horiz-adv-x="1779" d="M25 27q38 21 127 51q10 52 19 217.5t9 363.5q0 129 -16 263q-49 22 -115 26v45q224 0 453 41l14 -14q-39 -166 -39 -342l21 -2q42 107 110.5 206t149.5 152q165 0 231 -87.5t66 -268.5l16 -2q43 109 109.5 207t146.5 151q94 0 159 -30t100 -89q34 -59 48 -134 q11 -61 12 -141q0 -18 -1 -36l-17 -526q64 -22 121 -53l-6 -39q-115 14 -281 14q-110 0 -186 -6v43q18 82 29.5 225.5t11.5 267.5q0 142 -12.5 204.5t-47.5 62.5q-45 0 -94.5 -65t-89.5 -175l-14 -479q64 -22 121 -53l-6 -39q-116 14 -281 14q-109 0 -186 -6v43 q18 82 29.5 225.5t11.5 267.5q0 142 -12.5 204.5t-47.5 62.5q-47 0 -100.5 -71t-93.5 -187q0 -379 18 -467q64 -18 135 -49l-6 -41q-138 18 -307 18q-198 0 -303 -14z" />
<glyph unicode="n" horiz-adv-x="1216" d="M25 27q56 30 127 51q10 52 19 217.5t9 363.5q0 129 -16 263q-49 22 -115 26v45q224 0 453 41l14 -14q-39 -166 -39 -342l21 -2q41 104 112.5 204t153.5 154q94 0 159 -30t99 -89t48 -134q11 -61 12 -141q0 -18 -1 -36l-16 -526q64 -22 121 -53l-6 -39q-116 14 -281 14 q-109 0 -186 -6v43q18 82 29.5 225.5t11.5 267.5q0 142 -12.5 204.5t-47.5 62.5q-48 0 -104.5 -71.5t-95.5 -186.5q0 -379 18 -467q64 -18 135 -49l-6 -41q-138 18 -307 18q-198 0 -303 -14z" />
<glyph unicode="o" horiz-adv-x="1048" d="M49 406q0 101 41.5 200t111 179.5t158.5 144.5t187 104q225 0 338.5 -111.5t113.5 -324.5q0 -202 -136.5 -374t-338.5 -255q-217 0 -346 118t-129 319zM385 522q0 -94 6 -160t22.5 -125t49 -88.5t82.5 -29.5q55 0 82 16q37 154 37 346q0 74 -3.5 129.5t-13.5 110 t-27.5 88.5t-46.5 55t-69 21q-44 0 -82 -17q-37 -154 -37 -346z" />
<glyph unicode="p" horiz-adv-x="1122" d="M18 -381q45 11 103 39q39 235 39 684q0 436 -19 580q-49 22 -114 26v45q223 0 452 41l15 -14q-39 -166 -39 -342l20 -2q36 96 103.5 191t148.5 167q102 0 183 -62t122 -158t41 -204q0 -104 -40 -205t-109.5 -182.5t-157.5 -146.5t-188 -107q-58 0 -138 13q0 -194 17 -318 q74 -17 164 -57l-11 -43q-136 26 -293 26q-163 0 -290 -16zM471 539q0 -261 8 -349q24 -30 63.5 -47.5t78.5 -17.5q48 0 84 10q40 156 40 381q0 281 -88 281q-35 0 -87 -65.5t-99 -192.5z" />
<glyph unicode="q" horiz-adv-x="1114" d="M49 393q0 138 70.5 267.5t180.5 223t245 150.5q156 0 352 -59q97 18 180 55l10 -39q-29 -29 -98 -71q-23 -158 -29 -273t-6 -307q0 -403 23 -635q51 -8 113 -27l4 -38q-306 -12 -576 -82l-14 43q97 33 121 57q18 79 30.5 313.5t12.5 354.5l-21 2q-36 -97 -103.5 -192 t-148.5 -167q-102 0 -183 62t-122 158t-41 204zM367 487q0 -280 88 -280q35 0 87 65.5t99 192.5q0 260 -8 348q-24 30 -63 48t-78 18q-44 0 -84 -11q-41 -160 -41 -381z" />
<glyph unicode="r" horiz-adv-x="886" d="M25 27q38 21 127 51q10 52 19 217.5t9 363.5q-4 160 -16 263q-49 22 -115 26v45q224 0 453 41l14 -14q-39 -166 -39 -342l21 -2q48 122 104 214.5t133 143.5q94 0 176 -37v-32q-68 -93 -98.5 -192t-36.5 -224h-49q-6 82 -20 133q-36 18 -76 18q-16 0 -28 -3t-34 -16 t-41.5 -49t-33.5 -93q0 -379 18 -467q89 -16 176 -49l-6 -43q-140 20 -348 20q-198 0 -303 -14z" />
<glyph unicode="s" horiz-adv-x="858" d="M35 14v33q101 128 112 322h50q0 -56 20 -133q49 -43 116.5 -72t125.5 -29q53 0 80.5 37t27.5 96q0 31 -50 60.5t-121.5 53t-143.5 46t-122 48t-50 50.5q0 70 40 150t102.5 148.5t136 124t141.5 85.5q210 0 348 -47v-33q-53 -53 -81 -98.5t-48 -114.5l-21 -4 q-67 54 -144.5 92.5t-143.5 38.5q-38 0 -63 -25t-25 -63q0 -37 76 -74.5t167.5 -63.5t167.5 -59t76 -63q0 -103 -67 -216t-163 -199t-198 -136q-191 0 -346 45z" />
<glyph unicode="t" horiz-adv-x="763" d="M29 903q0 43 6 55q138 68 225 137t176 187q35 12 92 12l9 -6q-3 -17 -13.5 -67t-14.5 -70.5t-9 -61t-6 -81.5l258 10l10 -10q-24 -77 -29 -129q-133 13 -248 16l-14 -428q-1 -36 -1 -67q0 -86 10 -134q14 -65 50 -65q51 0 101 39.5t86 97.5l33 -19q-32 -65 -55.5 -107.5 t-59.5 -93t-79 -87.5t-95 -62q-97 0 -161.5 29t-98.5 88q-34 60 -46 134q-9 56 -9 128q0 24 1 51l11 260q6 123 6 240h-131z" />
<glyph unicode="u" horiz-adv-x="1228" d="M25 948v45q244 0 473 41l14 -14q-43 -183 -43 -547q0 -143 12 -204.5t47 -61.5q48 0 105 71.5t96 186.5q0 379 -18 467q-67 19 -136 49l7 41q138 -18 307 -18q198 0 303 14l6 -41q-38 -21 -127 -51q-10 -52 -19.5 -218.5t-9.5 -363.5q3 -148 17 -262q52 -23 115 -27v-45 q-224 0 -453 -41l-14 15q38 162 38 342l-20 2q-41 -105 -112.5 -205t-153.5 -154q-97 0 -161 29t-97.5 88t-45.5 133q-10 63 -10 150v30l7 260v41q0 109 -13 222q-49 22 -114 26z" />
<glyph unicode="v" horiz-adv-x="1071" d="M-37 948v45q259 0 488 41l8 -14q-31 -48 -31 -127q0 -71 12 -182q16 -145 31.5 -250t29 -168.5t28.5 -100.5t27.5 -50t27.5 -13q60 109 91.5 274t31.5 312q0 139 -43 205q-37 16 -132 20l3 47q329 3 559 68l8 -37q-39 -27 -105 -57q39 -55 39 -136q0 -187 -128 -414 t-308 -384q-96 -39 -242 -58q-40 17 -65.5 42t-46.5 71t-38 121t-36.5 187t-45.5 273q0 7 -1 9q-1 10 -47 250q-49 22 -115 26z" />
<glyph unicode="w" horiz-adv-x="1658" d="M-37 948v45q259 0 488 41l8 -14q-31 -48 -31 -127q0 -71 12 -182q16 -145 31.5 -250t29 -168.5t28.5 -100.5t27.5 -50t27.5 -13q60 108 90.5 277t30.5 319q0 130 -41 193q-48 19 -132 26l5 47q226 -14 428 -14q188 0 397.5 20.5t318.5 57.5l9 -37q-59 -37 -105 -55 q39 -55 39 -138q0 -189 -124 -416t-302 -382q-96 -39 -242 -58q-64 27 -97 83t-62 190q-89 -121 -197 -215q-96 -39 -242 -58q-40 17 -65.5 42t-46.5 71t-38 121t-36.5 187t-45.5 273q0 7 -1 9q-1 10 -47 250q-49 22 -115 26zM1024 913q0 -87 14 -202q16 -145 31.5 -250 t29 -168.5t28.5 -100.5t27.5 -50t27.5 -13q60 108 90.5 277t30.5 319q0 129 -43 195q-33 16 -101 16q-82 0 -135 -23z" />
<glyph unicode="x" horiz-adv-x="1019" d="M-6 6v33q68 93 98.5 192t36.5 224h49q6 -77 21 -133q34 -19 75 -19q18 0 46.5 41.5t54.5 114.5l-103 188q-113 217 -166 285q-51 16 -108 20v43q24 -1 50 -1q85 0 202 8q154 10 233 28l19 -6v-8q0 -48 21 -132q23 -92 55 -157l28 -61q53 236 162 368q45 0 113.5 -10.5 t103.5 -26.5v-32q-68 -93 -98.5 -192t-36.5 -224h-49q-6 77 -21 133q-32 18 -75 18q-30 0 -68 -104l131 -236q128 -234 166 -284q55 -18 108 -21v-43q-24 1 -50 1q-85 1 -202 -7q-154 -10 -233 -29l-18 7v8q0 49 -21 133q-23 91 -55 156l-57 116q-22 -131 -70 -245 t-105 -183q-48 0 -125 10.5t-112 26.5z" />
<glyph unicode="y" horiz-adv-x="1167" d="M25 948v45q244 0 473 41l14 -14q-43 -183 -43 -547q0 -143 12 -204.5t47 -61.5q36 0 87 77.5t85 180.5q0 379 -18 467q-60 21 -107 49l7 41q138 -18 278 -18q198 0 303 14l6 -41q-38 -21 -127 -51q-10 -51 -19 -190t-9 -281q0 -281 30 -473q-61 -119 -210 -250t-273 -172 q-202 0 -469 84v32q80 85 108 134.5t38 138.5h53q3 -62 10 -96q125 -144 289 -144q43 0 84 17q30 132 36.5 231.5t6.5 368.5l-21 2q-49 -123 -104.5 -215.5t-132.5 -143.5q-97 0 -161 29t-97.5 88t-45.5 133q-10 63 -10 150v30l7 260v41q0 109 -13 222q-49 22 -114 26z" />
<glyph unicode="z" horiz-adv-x="884" d="M-31 0q61 64 195 221l389 477l-115 7q-125 5 -203 5q-58 0 -90 -3q-41 -41 -77 -105l-41 25q45 96 62 184.5t24 208.5l28 14q49 -24 113 -33.5t281 -27.5l233 -19q72 33 123 80l37 -33q-73 -70 -156 -190l-328 -477l5 -8q32 14 59 20q127 0 280 -41q39 56 60 121l43 -12 q-35 -132 -35 -217q0 -89 27 -211l-25 -17q-384 99 -704 99q-74 -30 -148 -101z" />
<glyph unicode="{" horiz-adv-x="614" d="M90 522q53 12 100.5 49.5t47.5 81.5q0 97 -38 256t-38 256q0 88 97.5 174.5t199.5 116.5l10 -37q-54 -28 -94.5 -76.5t-59.5 -105.5q0 -97 46.5 -289t46.5 -274q-29 -68 -187 -162v-8q158 -94 187 -162q0 -82 -46.5 -274t-46.5 -289q19 -57 60.5 -104.5t95.5 -75.5 l-12 -39q-102 30 -199.5 116t-97.5 174q0 97 38 255.5t38 256.5q0 42 -45 77.5t-95 43.5z" />
<glyph unicode="|" horiz-adv-x="487" d="M168 1481q10 4 41.5 15t56 21t37.5 19l10 -2q-4 -290 -4 -1942q-8 -4 -28.5 -10.5t-48.5 -14t-35 -9.5l-15 6q0 1411 -14 1917z" />
<glyph unicode="}" horiz-adv-x="589" d="M143 -401q100 51 142 180q0 97 -46 289t-46 274q25 59 188 155q8 5 12 7v8q-119 70 -160 110q-29 27 -40 52q0 82 46 274t46 289q-44 132 -140 182l11 37q102 -30 199.5 -116.5t97.5 -174.5q0 -97 -38 -256t-38 -256q0 -44 47 -81.5t100 -49.5l-8 -39q-50 -8 -94.5 -43.5 t-44.5 -77.5q0 -98 38 -256.5t38 -255.5q0 -88 -97.5 -174t-199.5 -116z" />
<glyph unicode="~" horiz-adv-x="1304" d="M0 397q61 140 187 259.5t243 136.5q115 -99 256 -167.5t258 -68.5q184 0 311 193l50 -33q-53 -129 -169.5 -242.5t-232.5 -155.5q-59 0 -141 35t-152 77t-152 77t-141 35q-83 0 -152 -45t-114 -133z" />
<glyph unicode="&#xa1;" horiz-adv-x="593" d="M76 -317q84 228 129 399.5t86 417.5l94 10l78 -883q-119 -70 -266 -67q-79 49 -121 123zM137 868q28 42 86 90.5t107 75.5q54 -24 110.5 -73t83.5 -93q-24 -45 -85.5 -108.5t-108.5 -95.5q-48 32 -109.5 96t-83.5 108z" />
<glyph unicode="&#xa2;" horiz-adv-x="1024" d="M127 436q0 90 38 180.5t102 165t143.5 135.5t167.5 103q0 16 -5 174q45 19 80 49l13 -6q-11 -130 -13 -205q176 -7 303 -51v-33q-100 -90 -132.5 -151.5t-43.5 -161.5h-49q-6 79 -20 131q-43 38 -66 51q0 -11 -1 -37t-1 -39l-18 -518h20q62 0 124.5 42.5t98.5 101.5 l33 -17q-47 -99 -120 -184t-163 -141l-8 -254l-12 -2q-40 3 -72 32q14 114 19 199q-194 8 -306 123.5t-112 312.5zM455 522q0 -224 102 -280q0 24 16 473l5 133q-37 13 -86 20q-37 -195 -37 -346z" />
<glyph unicode="&#xa3;" horiz-adv-x="1024" d="M68 457l6 100h131q37 168 175.5 321t305.5 224q197 0 352 -55v-33q-100 -86 -133.5 -145t-46.5 -148h-49q-4 48 -21 113q-42 41 -104 69.5t-119 34.5q-42 -208 -45 -363q44 3 96 9q128 12 183 22l12 -10l-8 -94l-287 -23q-25 -117 -98 -219v-18q42 26 67 32 q186 0 375 -34q31 60 49 116l45 -14q-24 -79 -24 -195q0 -92 20 -167l-24 -17q-209 43 -356 59.5t-345 16.5q-36 -33 -67 -90l-47 20q17 49 92 172q8 65 6 98.5t-8 100.5t-6 115l-111 -11z" />
<glyph unicode="&#xa4;" horiz-adv-x="1161" d="M51 225q44 37 180 160q-65 84 -65 201q0 161 100 288q-121 111 -215 193q3 14 17 31.5t35 38.5l26 26h10l211 -205q110 85 266 113q148 0 254 -67q16 17 154 159q63 -20 137 -33l4 -8q-123 -110 -211 -198q62 -84 62 -207q0 -173 -111 -303q164 -158 260 -244l-4 -8 q-74 -13 -137 -33l-201 209q-104 -74 -231 -100q-160 0 -273 67l-180 -176h-10l-26 26t-35 38.5t-17 31.5zM350 674q0 -130 69 -208.5t197 -78.5q108 0 160 41q24 39 39.5 98t15.5 109q0 133 -68 210t-198 77q-102 0 -157 -43q-25 -40 -41.5 -98t-16.5 -107z" />
<glyph unicode="&#xa5;" horiz-adv-x="1024" d="M-20 1038l8 49q134 -16 291 -16q143 0 268 16l8 -47q-29 -14 -102 -28q12 -36 41 -133t54.5 -168t55.5 -125q13 50 29 108t23.5 87t17 64t13 51.5t7.5 36t5 31.5t1 25q0 48 -36 64l6 32q110 -14 190 -14q99 0 205 16l8 -47q-36 -20 -98 -32l-293 -469v-31q142 4 207 8 q18 -60 20 -65v-13h-225v-73q142 4 211 8q3 -9 5.5 -21.5t5.5 -22.5t9 -22v-12h-229q4 -130 19 -225q60 -12 135 -45l-6 -39q-98 14 -312 14q-206 0 -297 -14l-8 45q32 17 133 43q14 112 17 213l-244 -11l-6 13q6 11 9.5 23.5t6 27.5t4.5 22h232v68l-238 -10l-6 12 q6 11 9.5 23.5t6 28t4.5 22.5h217q-103 216 -156 318.5t-74.5 132t-49.5 53.5q-83 18 -102 28z" />
<glyph unicode="&#xa6;" horiz-adv-x="501" d="M178 383q10 4 41.5 15t56 21t37.5 19l11 -2q-5 -362 -5 -842q-8 -4 -28.5 -10.5t-48.5 -14t-35 -9.5l-14 6q-2 329 -15 817zM178 1485q10 4 41.5 15t56 21t37.5 19l11 -2q-5 -362 -5 -842q-8 -4 -28.5 -10.5t-48.5 -14t-35 -9.5l-14 6q-2 329 -15 817z" />
<glyph unicode="&#xa7;" horiz-adv-x="966" d="M57 500q61 159 183 286l55 -38q-19 -36 -16 -78q4 -42 29.5 -81t64.5 -69.5t88 -62.5t99.5 -59.5t98.5 -59.5t85.5 -62.5t60 -69.5t22.5 -81q-156 -258 -399 -365q-210 0 -348 47v33q53 53 81 98.5t48 114.5l20 4q67 -54 145 -92.5t144 -38.5q38 0 63 25t25 63 q0 41 -56.5 87t-137 89.5t-161.5 89.5t-137.5 103.5t-56.5 116.5zM139 999q155 257 400 365q210 0 348 -47v-33q-53 -53 -81 -98.5t-48 -114.5l-21 -4q-67 54 -144.5 92.5t-143.5 38.5q-38 0 -63.5 -25t-25.5 -63q0 -41 56.5 -87t137 -89t161.5 -89t137.5 -103.5 t56.5 -116.5q-63 -162 -182 -287l-55 39q16 31 16 78t-30.5 91t-78.5 78.5t-106.5 68.5t-117.5 68t-107 68.5t-78.5 78.5t-30.5 91z" />
<glyph unicode="&#xa8;" horiz-adv-x="821" d="M0 1313q25 41 79 86.5t105 68.5q47 -25 102 -70.5t81 -84.5q-21 -42 -79 -103t-104 -92q-45 30 -103 91t-81 104zM455 1313q25 41 79 86.5t105 68.5q46 -25 101 -70.5t81 -84.5q-21 -42 -79 -103t-103 -92q-45 30 -103 91t-81 104z" />
<glyph unicode="&#xa9;" horiz-adv-x="1566" d="M86 666q0 142 55 271t148 222.5t222 149t271 55.5q189 0 350 -93.5t255 -254.5t94 -350q0 -142 -55.5 -271t-149 -222.5t-223 -148.5t-271.5 -55q-189 0 -349.5 93.5t-253.5 254t-93 349.5zM195 666q0 -161 78 -297t213.5 -215.5t295.5 -79.5t296 79.5t215 216t79 296.5 t-79 297t-215 217t-296 80t-295.5 -80t-213.5 -216.5t-78 -297.5zM414 588q0 177 107.5 308t287.5 191q132 0 262 -24l-2 -37q-34 0 -61 -12q-31 -89 -31 -201h-37q-17 57 -20 105q-26 24 -65 38.5t-77 14.5q-49 0 -73 -21q-20 -47 -30.5 -125.5t-10.5 -140.5q0 -46 1 -74 t5 -68.5t14 -65.5t26 -49.5t42 -36t61 -11.5q54 0 95 18t93 56l25 -23q-100 -130 -252 -186q-360 0 -360 344z" />
<glyph unicode="&#xaa;" horiz-adv-x="923" d="M49 862q0 161 117 297t287 205q129 0 280 -45q39 49 55 100l43 -12q-36 -158 -36 -528q0 -163 14 -261q46 -20 90 -20v-37q-187 0 -375 -31l-10 13q31 136 31 258l-15 2q-59 -154 -200 -273q-83 0 -148.5 48.5t-99 124t-33.5 159.5zM334 936q0 -207 53 -207 q25 0 61.5 48.5t69.5 140.5q0 164 -4 262q-35 47 -98 47q-32 0 -56 -8q-26 -109 -26 -283z" />
<glyph unicode="&#xab;" horiz-adv-x="1005" d="M57 580v41q25 15 50 32.5t51.5 40t46 39t48.5 46t44.5 45t48 51.5t44 49t48 54t45.5 52l39 -26l-229 -396l231 -426l-41 -28q-33 37 -103.5 118t-107.5 121.5t-97 95t-118 91.5zM446 580v41q33 20 63.5 41t66 50.5t57 47t63.5 57.5t55 52.5t63 62t58 57.5l39 -26 l-229 -355l231 -385l-41 -28q-38 37 -104.5 104t-106 105.5t-98.5 88.5t-117 87z" />
<glyph unicode="&#xac;" horiz-adv-x="1179" d="M111 481l18 135q346 -18 702 -18q137 0 216 6l12 -12q0 -139 10 -412l-10 -12l-137 18v281h-795z" />
<glyph unicode="&#xad;" horiz-adv-x="614" d="M49 475l12 135h95q212 0 393 21l16 -10l-12 -127l-485 -31z" />
<glyph unicode="&#xae;" horiz-adv-x="888" d="M43 1024q0 167 117 284t284 117t284.5 -117t117.5 -284t-117.5 -284t-284.5 -117t-284 117t-117 284zM127 1024q0 -134 92 -228t225 -94t223.5 94t90.5 228t-90.5 225.5t-223.5 91.5q-134 0 -225.5 -91.5t-91.5 -225.5zM256 1223v18q29 0 98.5 2t100.5 2q75 0 114 -21 t39 -81q0 -33 -20 -62.5t-51 -44.5l88 -178q20 -5 34 -12l-4 -19q-44 7 -92 7q-28 0 -78 -5l-2 13q13 17 13 39q0 49 -31 141h-33l2 31h6q47 0 47 80q0 75 -43 75q-12 0 -24 -4q-6 -40 -6 -162q0 -146 8 -186q32 -8 37 -10l-2 -19q-61 7 -105 7q-41 0 -92 -7l-2 19l33 12 q8 72 8 178q0 68 -8 176q-22 11 -35 11z" />
<glyph unicode="&#xaf;" horiz-adv-x="661" d="M0 1245l25 172l92 -6q136 -8 301 -8q110 0 227 10l17 -10l-25 -164l-619 -6z" />
<glyph unicode="&#xb0;" horiz-adv-x="751" d="M92 1042q0 126 85 214t216 110q119 0 192.5 -62t73.5 -174q0 -122 -77.5 -207t-204.5 -112q-122 0 -203.5 60t-81.5 171zM233 1102q0 -85 40.5 -133.5t121.5 -48.5q67 0 97 24q26 57 26 131q0 86 -40 134t-122 48q-66 0 -96 -24q-27 -59 -27 -131z" />
<glyph unicode="&#xb1;" horiz-adv-x="1179" d="M109 -6l18 125q366 -19 723 -19q115 0 194 6l13 -12l-19 -114h-913zM125 551l18 145q251 -12 375 -14v313l146 19l10 -13q-10 -182 -10 -319v-2q76 -2 223 -2q94 0 174 6l12 -12l-18 -135h-391q0 -157 18 -353l-143 -8l-21 4v357h-377z" />
<glyph unicode="&#xb2;" horiz-adv-x="811" d="M29 711q26 53 74.5 110t96.5 104.5t93.5 97t73.5 105.5t28 113q0 46 -27 70t-75 24q-45 0 -64 -16q-10 -23 -10 -57q0 -35 19 -48v-12q-55 -21 -125 -88q-47 0 -47 49q0 81 112.5 202t202.5 163q184 0 254 -64t70 -243q-65 -60 -171.5 -145t-183.5 -138l8 -10 q27 14 43 18q100 4 256 -16q24 47 41 96l43 -12q-20 -68 -20 -166q0 -74 14 -139l-20 -15q-175 33 -297.5 47.5t-274.5 14.5q-37 -16 -73 -66z" />
<glyph unicode="&#xb3;" horiz-adv-x="778" d="M66 758v24q64 89 71 236h41q0 -55 2 -86q30 -53 76 -88t90 -35q40 0 57 14q17 50 17 103q0 149 -150 149l-8 12l176 205l-4 6q-23 -10 -39 -14q-109 0 -211 10q-20 -38 -32 -86l-39 13q14 82 14 151q0 82 -18 141l18 13q149 -22 255 -29.5t257 -7.5q22 12 47 41l39 -29 l-250 -272q114 -10 184 -95t70 -208q-138 -144 -389 -232q-63 0 -140 18t-134 46z" />
<glyph unicode="&#xb4;" horiz-adv-x="557" d="M0 1128q257 138 408 396q18 6 65 6q21 0 33 -4q19 -31 34 -111t17 -137l-537 -199z" />
<glyph unicode="&#xb6;" horiz-adv-x="1204" d="M-10 1028q0 65 24.5 121.5t73 101.5t129 71t184.5 26q43 0 90.5 -2.5t114 -6.5t107.5 -6l-2 -14q-33 -230 -33 -653v-295q0 -154 -31 -272t-86 -190.5t-126 -108.5t-156 -36q-105 0 -105 56q26 24 62.5 69.5t54.5 73.5l14 2q27 -24 80 -24q77 0 117 18q45 123 45 309v338 q-25 -2 -70 -2q-109 0 -203 38t-155 99t-95 136t-34 151zM750 6q20 64 27 177t7 483q0 472 25 663q88 -8 278 -8h74v-51q-28 0 -56 -5t-44 -10t-57 -18q-25 -219 -25 -571q0 -171 9 -349t18 -239q16 -2 38 -7.5t38 -10.5t41.5 -13.5t35.5 -11.5l-8 -51q-125 16 -281 16 q-75 0 -116 -2z" />
<glyph unicode="&#xb7;" horiz-adv-x="526" d="M70 584q27 44 83.5 93t110.5 73q49 -27 107 -75.5t86 -90.5q-22 -44 -83.5 -108.5t-109.5 -96.5q-47 32 -108.5 96t-85.5 109z" />
<glyph unicode="&#xb8;" horiz-adv-x="450" d="M0 -438q17 26 42.5 79t31.5 76l8 4q22 -36 59 -57.5t80 -21.5q37 0 60 10q12 21 12 47q0 43 -54 62.5t-128 19.5l-13 8l78 240l80 4l-47 -107l8 -6q234 0 234 -158q-79 -151 -250 -243q-42 0 -103 12.5t-98 30.5z" />
<glyph unicode="&#xb9;" horiz-adv-x="647" d="M49 1305q0 31 6 49q93 20 189.5 65t158.5 103q36 6 74 6l6 -4q-8 -63 -15 -203t-7 -215q0 -230 12 -324q26 -8 92 -37l-6 -47q-146 23 -242 23q-138 0 -247 -23l-4 47q58 24 102 33q5 42 10.5 152t5.5 170q0 106 -6 200h-125z" />
<glyph unicode="&#xba;" horiz-adv-x="870" d="M49 872q0 79 34 156t91 140t129 113.5t152 82.5q182 0 274 -88t92 -254q0 -157 -110.5 -291.5t-274.5 -200.5q-177 0 -282 92.5t-105 249.5zM342 963q0 -55 2.5 -96t9 -82t18.5 -66.5t32.5 -41t48.5 -15.5q31 0 51 14q24 104 24 256q0 70 -4 119t-14.5 93.5t-33 66.5 t-56.5 22q-31 0 -53 -14q-25 -108 -25 -256z" />
<glyph unicode="&#xbb;" horiz-adv-x="1005" d="M92 223l232 385l-230 355l39 26q8 -8 58 -57.5t63 -62t55 -52.5t63.5 -57.5t57 -47t66 -50.5t63.5 -41v-41q-58 -37 -117 -87t-98.5 -88.5t-106 -105.5t-104.5 -104zM481 182l232 426l-230 396l39 26q9 -11 45.5 -52t48 -54t44 -49t48 -51.5t44.5 -45t48.5 -46t46 -39 t51.5 -40t50 -32.5v-41q-58 -37 -118 -91.5t-97 -95t-107.5 -121.5t-103.5 -118z" />
<glyph unicode="&#xbc;" horiz-adv-x="1740" d="M70 1141q0 31 6 49q93 20 189.5 65t158.5 103q36 6 74 6l6 -4q-8 -63 -15.5 -204t-7.5 -214q0 -67 4.5 -178.5t8.5 -145.5q33 -10 92 -36l-6 -47q-139 22 -242 22q-144 0 -248 -22l-4 47q53 22 102 32q5 43 11 153t6 169q0 106 -6 201h-125zM248 -2q168 211 256 330 l520 719q120 167 270 395q42 -9 138 -15l8 -6q-64 -79 -279 -377l-815 -1130l-10 2q-5 4 -22 16.5t-27 21t-22 21t-17 23.5zM877 258q215 243 356 533q13 1 45 4t43 4t36.5 3.5t39.5 4.5t35.5 5.5t41.5 8t42 10.5l18 -6q-18 -98 -18 -288v-199q55 0 88 13t47 52l28 -8 q-15 -75 -10 -211l-8 -4q-49 4 -143 4q0 -47 10 -98q22 -12 94 -31l-8 -47q-116 17 -258 17q-147 0 -236 -21l-6 43q60 25 113 35q10 59 10 102h-346zM1077 352q71 -12 160 -12l4 295h-10q-38 -92 -70.5 -153t-83.5 -130z" />
<glyph unicode="&#xbd;" horiz-adv-x="1740" d="M76 1141q0 31 6 49q98 21 203.5 66.5t165.5 101.5q36 6 73 6l6 -4q-8 -63 -15 -203t-7 -215q0 -230 12 -324q33 -10 92 -36l-6 -47q-139 22 -252 22q-154 0 -258 -22l-4 47q52 21 103 32q5 42 10.5 152t5.5 170q0 106 -6 201h-125zM248 -2q168 211 256 330l520 719 q120 167 270 395q42 -9 138 -15l8 -6q-64 -79 -279 -377l-815 -1130l-10 2q-5 4 -22 16.5t-27 21t-22 21t-17 23.5zM936 16q26 53 74.5 110.5t96.5 104.5t93.5 97t74 106t28.5 113q0 46 -27.5 70t-75.5 24q-44 0 -63 -16q-11 -26 -11 -58q0 -34 19 -47v-12q-55 -21 -125 -88 q-47 0 -47 49q0 81 112.5 202t202.5 163q184 0 254 -64.5t70 -243.5q-64 -60 -170.5 -144.5t-184.5 -137.5l9 -11q27 15 43 19q100 4 256 -16q24 47 41 96l43 -13q-21 -72 -21 -165q0 -75 14 -140l-20 -14q-172 32 -295 46.5t-276 14.5q-17 -7 -38.5 -26.5t-35.5 -38.5z" />
<glyph unicode="&#xbe;" horiz-adv-x="1740" d="M86 594v24q65 91 72 236h41q0 -55 2 -86q30 -53 76 -88t90 -35q40 0 57 14q16 47 16 103q0 149 -149 149l-8 13l176 204l-4 7q-23 -11 -39 -15q-109 0 -211 10q-22 -41 -33 -86l-39 13q14 82 14 151q0 83 -18 142l18 12q149 -22 255 -29.5t257 -7.5q24 13 48 41l38 -29 l-249 -272q114 -10 184 -95t70 -208q-138 -143 -390 -232q-63 0 -140 18t-134 46zM248 -2q168 211 256 330l520 719q120 167 270 395q42 -9 138 -15l8 -6q-64 -79 -279 -377l-815 -1130l-10 2q-5 4 -22 16.5t-27 21t-22 21t-17 23.5zM877 258q215 243 356 533q13 1 45 4 t43 4t36.5 3.5t39.5 4.5t35.5 5.5t41.5 8t42 10.5l18 -6q-18 -98 -18 -288v-199q55 0 88 13t47 52l28 -8q-15 -75 -10 -211l-8 -4q-49 4 -143 4q0 -47 10 -98q22 -12 94 -31l-8 -47q-116 17 -258 17q-147 0 -236 -21l-6 43q60 25 113 35q10 59 10 102h-346zM1077 352 q71 -12 160 -12l4 295h-10q-38 -92 -70.5 -153t-83.5 -130z" />
<glyph unicode="&#xbf;" horiz-adv-x="718" d="M-61 -115q113 154 350 328q40 253 45 293l98 10l45 -266v-39q-178 -147 -178 -373q0 -127 119 -127q40 0 86 17q16 46 16 102q0 57 -22 76l2 14q107 38 180 103q53 -3 53 -60q0 -63 -37 -131t-94.5 -122t-127.5 -94.5t-134 -55.5q-114 0 -202.5 34.5t-143.5 109 t-55 181.5zM184 881q28 42 86 90.5t107 75.5q54 -24 110.5 -73t83.5 -93q-24 -45 -85.5 -109t-108.5 -96q-48 32 -109.5 96.5t-83.5 108.5z" />
<glyph unicode="&#xc0;" horiz-adv-x="1318" d="M-49 37q45 24 115 39l311 1181q-53 13 -121 46l10 53q185 -23 414 -23q310 0 534 23l9 -53q-48 -22 -103 -35q-9 -57 -17.5 -230.5t-8.5 -349.5q0 -422 28 -618q76 -14 123 -35l-6 -53q-148 18 -321 18q-172 0 -295 -18l-9 55q49 25 115 39q18 141 25 395q-55 8 -152 8 q-98 0 -166 -10q-30 -189 -30 -276q0 -70 17 -112.5t69 -62.5l-7 -32q-110 14 -225 14q-191 0 -301 -18zM301 1604q2 54 17 123.5t34 101.5q15 6 45 6q33 0 54 -6q64 -97 161.5 -169t245.5 -142l-20 -50zM457 616q74 -8 145 -8q99 0 154 8v52q0 347 -23 546q-28 11 -88 11 q-42 0 -84 -11z" />
<glyph unicode="&#xc1;" horiz-adv-x="1318" d="M-49 37q45 24 115 39l311 1181q-53 13 -121 46l10 53q185 -23 414 -23q310 0 534 23l9 -53q-48 -22 -103 -35q-9 -57 -17.5 -230.5t-8.5 -349.5q0 -422 28 -618q76 -14 123 -35l-6 -53q-148 18 -321 18q-172 0 -295 -18l-9 55q49 25 115 39q18 141 25 395q-55 8 -152 8 q-98 0 -166 -10q-30 -189 -30 -276q0 -70 17 -112.5t69 -62.5l-7 -32q-110 14 -225 14q-191 0 -301 -18zM457 616q74 -8 145 -8q99 0 154 8v52q0 347 -23 546q-28 11 -88 11q-42 0 -84 -11zM594 1518q148 70 245.5 142t161.5 169q18 6 54 6q30 0 45 -6q19 -32 34 -101.5 t17 -123.5l-537 -136z" />
<glyph unicode="&#xc2;" horiz-adv-x="1318" d="M-49 37q45 24 115 39l311 1181q-53 13 -121 46l10 53q185 -23 414 -23q310 0 534 23l9 -53q-48 -22 -103 -35q-9 -57 -17.5 -230.5t-8.5 -349.5q0 -422 28 -618q76 -14 123 -35l-6 -53q-148 18 -321 18q-172 0 -295 -18l-9 55q49 25 115 39q18 141 25 395q-55 8 -152 8 q-98 0 -166 -10q-30 -189 -30 -276q0 -70 17 -112.5t69 -62.5l-7 -32q-110 14 -225 14q-191 0 -301 -18zM299 1518q132 70 221 142t154 169q21 6 63 6q43 0 64 -6q65 -97 154 -169t221 -142l-21 -50l-418 127l-418 -127zM457 616q74 -8 145 -8q99 0 154 8v52q0 347 -23 546 q-28 11 -88 11q-42 0 -84 -11z" />
<glyph unicode="&#xc3;" horiz-adv-x="1318" d="M-49 37q45 24 115 39l311 1181q-53 13 -121 46l10 53q185 -23 414 -23q310 0 534 23l9 -53q-48 -22 -103 -35q-9 -57 -17.5 -230.5t-8.5 -349.5q0 -422 28 -618q76 -14 123 -35l-6 -53q-148 18 -321 18q-172 0 -295 -18l-9 55q49 25 115 39q18 141 25 395q-55 8 -152 8 q-98 0 -166 -10q-30 -189 -30 -276q0 -70 17 -112.5t69 -62.5l-7 -32q-110 14 -225 14q-191 0 -301 -18zM326 1559q148 205 346 276q162 -104 321 -104q61 0 102 16t74 63l50 -34q-75 -102 -139.5 -169.5t-143.5 -109.5q-56 0 -195 53.5t-198 53.5q-116 0 -168 -80zM457 616 q74 -8 145 -8q99 0 154 8v52q0 347 -23 546q-28 11 -88 11q-42 0 -84 -11z" />
<glyph unicode="&#xc4;" horiz-adv-x="1318" d="M-49 37q45 24 115 39l311 1181q-53 13 -121 46l10 53q185 -23 414 -23q310 0 534 23l9 -53q-48 -22 -103 -35q-9 -57 -17.5 -230.5t-8.5 -349.5q0 -422 28 -618q76 -14 123 -35l-6 -53q-148 18 -321 18q-172 0 -295 -18l-9 55q49 25 115 39q18 141 25 395q-55 8 -152 8 q-98 0 -166 -10q-30 -189 -30 -276q0 -70 17 -112.5t69 -62.5l-7 -32q-110 14 -225 14q-191 0 -301 -18zM344 1677q26 41 79.5 87t104.5 69q46 -25 101.5 -71t81.5 -85q-21 -42 -79 -102.5t-104 -91.5q-46 30 -103.5 90.5t-80.5 103.5zM457 616q74 -8 145 -8q99 0 154 8v52 q0 347 -23 546q-28 11 -88 11q-42 0 -84 -11zM799 1677q26 41 79.5 87t104.5 69q46 -25 101 -71t81 -85q-21 -42 -78.5 -102.5t-103.5 -91.5q-46 30 -103.5 90.5t-80.5 103.5z" />
<glyph unicode="&#xc5;" horiz-adv-x="1318" d="M-49 37q45 24 115 39l311 1181q-53 13 -121 46l10 53q185 -23 414 -23q310 0 534 23l9 -53q-48 -22 -103 -35q-9 -57 -17.5 -230.5t-8.5 -349.5q0 -422 28 -618q76 -14 123 -35l-6 -53q-148 18 -321 18q-172 0 -295 -18l-9 55q49 25 115 39q18 141 25 395q-55 8 -152 8 q-98 0 -166 -10q-30 -189 -30 -276q0 -70 17 -112.5t69 -62.5l-7 -32q-110 14 -225 14q-191 0 -301 -18zM457 616q74 -8 145 -8q99 0 154 8v52q0 347 -23 546q-28 11 -88 11q-42 0 -84 -11zM528 1602q0 95 69 162.5t173 90.5q211 0 211 -172q0 -92 -63 -156.5t-162 -94.5 q-96 0 -162 43.5t-66 126.5zM653 1651q0 -55 32.5 -89t88.5 -34q14 0 36 5.5t32 12.5q14 38 14 90q0 56 -32 88.5t-89 32.5q-45 0 -67 -16q-15 -40 -15 -90z" />
<glyph unicode="&#xc6;" horiz-adv-x="1531" d="M-76 37q45 24 115 39l381 1181q-69 17 -129 46l10 53q185 -23 561 -23q450 0 651 27l13 -43q-47 -63 -65 -140t-21 -194h-56q-18 94 -18 178q-75 35 -195 35q-85 0 -120 -14q-25 -65 -40.5 -186.5t-17.5 -213.5q69 -16 127 -16q62 0 105.5 16t79.5 58l45 -11 q-27 -83 -27 -165q0 -83 20 -181l-51 -8q-30 78 -43 152q-47 12 -129 12q-57 0 -129 -10q0 -60 0.5 -96t2.5 -83.5t6 -75t11.5 -61t18.5 -52.5t26.5 -39t36.5 -29.5t48 -16t61 -6.5q161 0 289 125l33 -31q-96 -129 -198 -199.5t-228 -95.5q-88 0 -154 17t-111 39.5t-74.5 75 t-45 93t-23 126t-9 141.5t-1.5 170q-39 8 -92 8q-68 0 -133 -10q-76 -356 -76 -436q0 -70 17 -112.5t69 -62.5l-6 -32q-110 14 -226 14q-191 0 -301 -18zM481 772q41 -8 107 -8q61 0 100 8l39 326q8 71 0 119q-27 8 -84 8q-35 0 -65 -6q-81 -372 -97 -447z" />
<glyph unicode="&#xc7;" horiz-adv-x="1056" d="M61 543q0 290 172 506t461 315q216 0 428 -39l-2 -49q-51 0 -100 -19q-59 -159 -59 -323h-56q-21 78 -24 172q-43 40 -109.5 63t-128.5 23q-96 0 -141 -35q-34 -80 -54 -219t-20 -244q0 -55 0.5 -89t3 -84t7.5 -82t14.5 -72.5t23.5 -66t34.5 -53t47 -42.5t62.5 -25 t79 -10q87 0 156.5 30.5t153.5 94.5l32 -31q-170 -217 -405 -295q-280 0 -428 147t-148 427zM303 -438q17 26 42.5 79t31.5 76l8 4q22 -36 59 -57.5t80 -21.5q37 0 60 10q12 21 12 47q0 43 -54 62.5t-128 19.5l-13 8l78 240l80 4l-47 -107l8 -6q234 0 234 -158 q-79 -151 -250 -243q-42 0 -103 12.5t-98 30.5z" />
<glyph unicode="&#xc8;" horiz-adv-x="1077" d="M61 543q0 290 172 506t461 315q216 0 428 -39l-2 -49q-51 0 -100 -19q-59 -159 -59 -323h-56q-21 78 -24 172q-43 40 -109.5 63t-128.5 23q-96 0 -141 -35q-28 -64 -46.5 -171t-23.5 -198q75 -20 186 -20q80 0 133 15t93 57l45 -11q-27 -83 -27 -165q0 -78 21 -181 l-52 -8q-30 78 -43 152q-64 10 -170 10q-111 0 -190 -10q0 -82 5 -141.5t21.5 -122.5t45 -102.5t79.5 -65t121 -25.5q87 0 156.5 30.5t153.5 94.5l32 -31q-170 -217 -405 -295q-280 0 -428 147t-148 427zM252 1604q2 54 17 123.5t34 101.5q15 6 45 6q32 0 53 -6 q64 -97 162 -169t246 -142l-21 -50z" />
<glyph unicode="&#xc9;" horiz-adv-x="1077" d="M61 543q0 290 172 506t461 315q216 0 428 -39l-2 -49q-51 0 -100 -19q-59 -159 -59 -323h-56q-21 78 -24 172q-43 40 -109.5 63t-128.5 23q-96 0 -141 -35q-28 -64 -46.5 -171t-23.5 -198q75 -20 186 -20q80 0 133 15t93 57l45 -11q-27 -83 -27 -165q0 -78 21 -181 l-52 -8q-30 78 -43 152q-64 10 -170 10q-111 0 -190 -10q0 -82 5 -141.5t21.5 -122.5t45 -102.5t79.5 -65t121 -25.5q87 0 156.5 30.5t153.5 94.5l32 -31q-170 -217 -405 -295q-280 0 -428 147t-148 427zM475 1518q148 70 246 142t162 169q18 6 53 6q30 0 45 -6 q19 -32 34 -101.5t17 -123.5l-536 -136z" />
<glyph unicode="&#xca;" horiz-adv-x="1077" d="M61 543q0 290 172 506t461 315q216 0 428 -39l-2 -49q-51 0 -100 -19q-59 -159 -59 -323h-56q-21 78 -24 172q-43 40 -109.5 63t-128.5 23q-96 0 -141 -35q-28 -64 -46.5 -171t-23.5 -198q75 -20 186 -20q80 0 133 15t93 57l45 -11q-27 -83 -27 -165q0 -78 21 -181 l-52 -8q-30 78 -43 152q-64 10 -170 10q-111 0 -190 -10q0 -82 5 -141.5t21.5 -122.5t45 -102.5t79.5 -65t121 -25.5q87 0 156.5 30.5t153.5 94.5l32 -31q-170 -217 -405 -295q-280 0 -428 147t-148 427zM260 1518q132 70 221 142t154 169q21 6 63 6q43 0 64 -6 q65 -97 154 -169t221 -142l-21 -50l-418 127l-417 -127z" />
<glyph unicode="&#xcb;" horiz-adv-x="1077" d="M61 543q0 290 172 506t461 315q216 0 428 -39l-2 -49q-51 0 -100 -19q-59 -159 -59 -323h-56q-21 78 -24 172q-43 40 -109.5 63t-128.5 23q-96 0 -141 -35q-28 -64 -46.5 -171t-23.5 -198q75 -20 186 -20q80 0 133 15t93 57l45 -11q-27 -83 -27 -165q0 -78 21 -181 l-52 -8q-30 78 -43 152q-64 10 -170 10q-111 0 -190 -10q0 -82 5 -141.5t21.5 -122.5t45 -102.5t79.5 -65t121 -25.5q87 0 156.5 30.5t153.5 94.5l32 -31q-170 -217 -405 -295q-280 0 -428 147t-148 427zM254 1677q26 41 79.5 87t104.5 69q46 -25 101.5 -71t81.5 -85 q-21 -42 -79 -102.5t-104 -91.5q-46 30 -103.5 90.5t-80.5 103.5zM709 1677q26 41 79.5 87t104.5 69q46 -25 101 -71t81 -85q-21 -42 -78.5 -102.5t-103.5 -91.5q-46 30 -103.5 90.5t-80.5 103.5z" />
<glyph unicode="&#xcc;" horiz-adv-x="788" d="M80 1296l8 56q130 -19 295 -19q166 0 322 19l6 -54q-43 -19 -123 -34q-8 -56 -16.5 -228t-8.5 -348q0 -415 29 -618q76 -14 123 -35l-6 -53q-148 18 -322 18q-172 0 -295 -18l-8 55q49 25 115 39q26 198 26 592q0 170 -10 343t-20 246q-66 14 -115 39zM82 1604 q2 54 17 123.5t34 101.5q15 6 45 6q32 0 53 -6q64 -97 162 -169t246 -142l-21 -50z" />
<glyph unicode="&#xcd;" horiz-adv-x="788" d="M80 1296l8 56q130 -19 295 -19q166 0 322 19l6 -54q-43 -19 -123 -34q-8 -56 -16.5 -228t-8.5 -348q0 -415 29 -618q76 -14 123 -35l-6 -53q-148 18 -322 18q-172 0 -295 -18l-8 55q49 25 115 39q26 198 26 592q0 170 -10 343t-20 246q-66 14 -115 39zM184 1518 q148 70 246 142t162 169q18 6 53 6q30 0 45 -6q19 -32 34 -101.5t17 -123.5l-536 -136z" />
<glyph unicode="&#xce;" horiz-adv-x="788" d="M-41 1518q132 70 221 142t154 169q21 6 63 6q43 0 64 -6q65 -97 154 -169t221 -142l-21 -50l-418 127l-417 -127zM80 1296l8 56q130 -19 295 -19q166 0 322 19l6 -54q-43 -19 -123 -34q-8 -56 -16.5 -228t-8.5 -348q0 -415 29 -618q76 -14 123 -35l-6 -53 q-148 18 -322 18q-172 0 -295 -18l-8 55q49 25 115 39q26 198 26 592q0 170 -10 343t-20 246q-66 14 -115 39z" />
<glyph unicode="&#xcf;" horiz-adv-x="788" d="M-16 1677q26 41 79.5 87t104.5 69q46 -25 101 -71t81 -85q-21 -42 -78.5 -102.5t-103.5 -91.5q-46 30 -103.5 90.5t-80.5 103.5zM80 1296l8 56q130 -19 295 -19q166 0 322 19l6 -54q-43 -19 -123 -34q-8 -56 -16.5 -228t-8.5 -348q0 -415 29 -618q76 -14 123 -35l-6 -53 q-148 18 -322 18q-172 0 -295 -18l-8 55q49 25 115 39q26 198 26 592q0 170 -10 343t-20 246q-66 14 -115 39zM438 1677q25 41 79.5 87t105.5 69q46 -25 101 -71t81 -85q-21 -42 -78.5 -102.5t-103.5 -91.5q-46 30 -104 90.5t-81 103.5z" />
<glyph unicode="&#xd0;" horiz-adv-x="1353" d="M43 1274v55q102 0 327.5 9.5t327.5 9.5q297 0 445.5 -135t148.5 -422q0 -200 -82 -374t-234 -293t-347 -155q-161 0 -396 82q-30 -38 -51 -98l-51 12q53 264 57 658l-125 -7l-18 13l12 114h131q-6 337 -26 498q-56 27 -119 33zM526 643q0 -204 15 -446q78 -56 176 -56 q77 0 133 35q76 185 76 479q0 71 -5 134.5t-17 133.5t-35 126t-55.5 102t-82.5 71t-113 25q-42 0 -73 -10q-19 -195 -19 -483q113 6 187 16l16 -10l-12 -107z" />
<glyph unicode="&#xd1;" horiz-adv-x="1443" d="M80 1296l8 56q122 -19 303 -19q183 0 295 15l6 -37q-21 -6 -35 -24.5t-14 -39.5q0 -26 2.5 -42t22 -69.5t59.5 -128t120 -213t197 -329.5l9 4v193q0 102 -1.5 172t-6 139.5t-13.5 114t-22.5 86t-34.5 66t-48.5 42.5t-64.5 27l6 43q126 -19 256 -19q132 0 262 19l7 -54 q-53 -20 -144 -34q-10 -50 -20 -233.5t-10 -362.5q0 -423 30 -598q74 -11 144 -35l-7 -53q-126 18 -260 18q-131 0 -239 -12q0 61 -30.5 139t-134 265t-323.5 552l-8 -4v-158q0 -319 22.5 -483t98.5 -229q76 -14 123 -35l-6 -53q-22 2 -58 6.5t-54 6.5t-56 3.5t-88 1.5 q-158 0 -281 -18l-8 55q49 25 115 39q8 62 17 233t9 359q0 135 -10.5 329.5t-19.5 259.5q-66 14 -115 39zM328 1559q148 205 346 276q162 -104 321 -104q61 0 102 16t74 63l50 -34q-75 -102 -139.5 -169.5t-143.5 -109.5q-56 0 -195 53.5t-198 53.5q-116 0 -168 -80z" />
<glyph unicode="&#xd2;" d="M61 543q0 290 171.5 506t459.5 315q283 0 428.5 -144.5t145.5 -426.5q0 -294 -160 -510t-442 -314q-282 0 -442.5 158t-160.5 416zM225 1604q2 54 17 123.5t34 101.5q15 6 46 6q32 0 53 -6q64 -97 161.5 -169t245.5 -142l-20 -50zM428 694q0 -63 4.5 -122t15.5 -124 t32 -118t50.5 -96.5t75 -68t101.5 -24.5q66 0 116 35q38 88 57 216t19 243q0 64 -2 113t-8.5 110t-18 105.5t-32 90t-49.5 74t-71.5 46.5t-96.5 18q-70 0 -117 -33q-38 -90 -57 -218.5t-19 -246.5z" />
<glyph unicode="&#xd3;" d="M61 543q0 290 171.5 506t459.5 315q283 0 428.5 -144.5t145.5 -426.5q0 -294 -160 -510t-442 -314q-282 0 -442.5 158t-160.5 416zM428 694q0 -63 4.5 -122t15.5 -124t32 -118t50.5 -96.5t75 -68t101.5 -24.5q66 0 116 35q38 88 57 216t19 243q0 64 -2 113t-8.5 110 t-18 105.5t-32 90t-49.5 74t-71.5 46.5t-96.5 18q-70 0 -117 -33q-38 -90 -57 -218.5t-19 -246.5zM541 1518q148 70 245.5 142t161.5 169q18 6 53 6q31 0 46 -6q19 -32 34 -101.5t17 -123.5l-537 -136z" />
<glyph unicode="&#xd4;" d="M61 543q0 290 171.5 506t459.5 315q283 0 428.5 -144.5t145.5 -426.5q0 -294 -160 -510t-442 -314q-282 0 -442.5 158t-160.5 416zM272 1518q132 70 221 142t154 169q21 6 64 6q42 0 63 -6q65 -97 154 -169t221 -142l-21 -50l-417 127l-418 -127zM428 694q0 -63 4.5 -122 t15.5 -124t32 -118t50.5 -96.5t75 -68t101.5 -24.5q66 0 116 35q38 88 57 216t19 243q0 64 -2 113t-8.5 110t-18 105.5t-32 90t-49.5 74t-71.5 46.5t-96.5 18q-70 0 -117 -33q-38 -90 -57 -218.5t-19 -246.5z" />
<glyph unicode="&#xd5;" d="M61 543q0 290 171.5 506t459.5 315q283 0 428.5 -144.5t145.5 -426.5q0 -294 -160 -510t-442 -314q-282 0 -442.5 158t-160.5 416zM281 1559q148 205 346 276q162 -104 321 -104q61 0 102 16t74 63l50 -34q-75 -102 -139.5 -169.5t-143.5 -109.5q-56 0 -195 53.5 t-198 53.5q-116 0 -168 -80zM428 694q0 -63 4.5 -122t15.5 -124t32 -118t50.5 -96.5t75 -68t101.5 -24.5q66 0 116 35q38 88 57 216t19 243q0 64 -2 113t-8.5 110t-18 105.5t-32 90t-49.5 74t-71.5 46.5t-96.5 18q-70 0 -117 -33q-38 -90 -57 -218.5t-19 -246.5z" />
<glyph unicode="&#xd6;" d="M61 543q0 290 171.5 506t459.5 315q283 0 428.5 -144.5t145.5 -426.5q0 -294 -160 -510t-442 -314q-282 0 -442.5 158t-160.5 416zM281 1677q26 41 79.5 87t104.5 69q46 -25 101 -71t81 -85q-21 -42 -78.5 -102.5t-103.5 -91.5q-46 30 -103.5 90.5t-80.5 103.5zM428 694 q0 -63 4.5 -122t15.5 -124t32 -118t50.5 -96.5t75 -68t101.5 -24.5q66 0 116 35q38 88 57 216t19 243q0 64 -2 113t-8.5 110t-18 105.5t-32 90t-49.5 74t-71.5 46.5t-96.5 18q-70 0 -117 -33q-38 -90 -57 -218.5t-19 -246.5zM735 1677q25 41 79.5 87t105.5 69 q46 -25 101 -71t81 -85q-21 -42 -78.5 -102.5t-103.5 -91.5q-46 30 -104 90.5t-81 103.5z" />
<glyph unicode="&#xd7;" horiz-adv-x="1179" d="M158 186q14 13 137.5 119t198.5 184l-316 314l107 102l16 -2q52 -59 295 -313l283 311l16 2l106 -98l-319 -311q58 -60 115 -112t129 -112.5t96 -81.5l-86 -110l-23 2l-327 319l-320 -321h-22z" />
<glyph unicode="&#xd8;" d="M61 543q0 290 171.5 506t459.5 315q283 0 428.5 -144.5t145.5 -426.5q0 -294 -160 -510t-442 -314q-282 0 -442.5 158t-160.5 416zM287 -123q78 175 198 488l234 612q114 298 186 522q52 3 113 17l8 -7q-59 -135 -197 -503l-450 -1190h-10q-50 21 -82 61zM428 694 q0 -63 4.5 -122t15.5 -124t32 -118t50.5 -96.5t75 -68t101.5 -24.5q66 0 116 35q38 88 57 216t19 243q0 64 -2 113t-8.5 110t-18 105.5t-32 90t-49.5 74t-71.5 46.5t-96.5 18q-70 0 -117 -33q-38 -90 -57 -218.5t-19 -246.5z" />
<glyph unicode="&#xd9;" horiz-adv-x="1449" d="M72 1296l8 56q152 -19 305 -19q131 0 231 15l9 -35q-50 -28 -68.5 -69t-24.5 -120q-22 -270 -22 -559v-70t2 -64t5 -62.5t9.5 -54t16 -50t23.5 -38.5t32.5 -31t43.5 -17.5t56 -7.5q93 0 183 70q6 88 6 428q0 170 -10.5 342t-20.5 247q-66 14 -115 39l9 56 q130 -19 294 -19q166 0 322 19l6 -54q-43 -19 -123 -34q-8 -55 -16 -226.5t-8 -349.5q0 -422 28 -618q76 -14 123 -35l-6 -53q-18 2 -48.5 6t-40.5 5l-30 3t-34 2.5t-36 1t-51 0.5q-151 0 -274 -18l-8 36q19 28 26 117q-103 -100 -268 -166q-129 0 -216 32t-137 101 t-70.5 162.5t-20.5 229.5q0 117 14 370.5t14 278.5q0 74 -14 117q-71 16 -104 36zM262 1604q2 54 17 123.5t34 101.5q15 6 45 6q33 0 54 -6q64 -97 161.5 -169t245.5 -142l-20 -50z" />
<glyph unicode="&#xda;" horiz-adv-x="1449" d="M72 1296l8 56q152 -19 305 -19q131 0 231 15l9 -35q-50 -28 -68.5 -69t-24.5 -120q-22 -270 -22 -559v-70t2 -64t5 -62.5t9.5 -54t16 -50t23.5 -38.5t32.5 -31t43.5 -17.5t56 -7.5q93 0 183 70q6 88 6 428q0 170 -10.5 342t-20.5 247q-66 14 -115 39l9 56 q130 -19 294 -19q166 0 322 19l6 -54q-43 -19 -123 -34q-8 -55 -16 -226.5t-8 -349.5q0 -422 28 -618q76 -14 123 -35l-6 -53q-18 2 -48.5 6t-40.5 5l-30 3t-34 2.5t-36 1t-51 0.5q-151 0 -274 -18l-8 36q19 28 26 117q-103 -100 -268 -166q-129 0 -216 32t-137 101 t-70.5 162.5t-20.5 229.5q0 117 14 370.5t14 278.5q0 74 -14 117q-71 16 -104 36zM668 1518q148 70 245.5 142t161.5 169q18 6 53 6q31 0 46 -6q19 -32 34 -101.5t17 -123.5l-537 -136z" />
<glyph unicode="&#xdb;" horiz-adv-x="1449" d="M72 1296l8 56q152 -19 305 -19q131 0 231 15l9 -35q-50 -28 -68.5 -69t-24.5 -120q-22 -270 -22 -559v-70t2 -64t5 -62.5t9.5 -54t16 -50t23.5 -38.5t32.5 -31t43.5 -17.5t56 -7.5q93 0 183 70q6 88 6 428q0 170 -10.5 342t-20.5 247q-66 14 -115 39l9 56 q130 -19 294 -19q166 0 322 19l6 -54q-43 -19 -123 -34q-8 -55 -16 -226.5t-8 -349.5q0 -422 28 -618q76 -14 123 -35l-6 -53q-18 2 -48.5 6t-40.5 5l-30 3t-34 2.5t-36 1t-51 0.5q-151 0 -274 -18l-8 36q19 28 26 117q-103 -100 -268 -166q-129 0 -216 32t-137 101 t-70.5 162.5t-20.5 229.5q0 117 14 370.5t14 278.5q0 74 -14 117q-71 16 -104 36zM272 1518q132 70 221 142t154 169q21 6 64 6q42 0 63 -6q65 -97 154 -169t221 -142l-21 -50l-417 127l-418 -127z" />
<glyph unicode="&#xdc;" horiz-adv-x="1449" d="M72 1296l8 56q152 -19 305 -19q131 0 231 15l9 -35q-50 -28 -68.5 -69t-24.5 -120q-22 -270 -22 -559v-70t2 -64t5 -62.5t9.5 -54t16 -50t23.5 -38.5t32.5 -31t43.5 -17.5t56 -7.5q93 0 183 70q6 88 6 428q0 170 -10.5 342t-20.5 247q-66 14 -115 39l9 56 q130 -19 294 -19q166 0 322 19l6 -54q-43 -19 -123 -34q-8 -55 -16 -226.5t-8 -349.5q0 -422 28 -618q76 -14 123 -35l-6 -53q-18 2 -48.5 6t-40.5 5l-30 3t-34 2.5t-36 1t-51 0.5q-151 0 -274 -18l-8 36q19 28 26 117q-103 -100 -268 -166q-129 0 -216 32t-137 101 t-70.5 162.5t-20.5 229.5q0 117 14 370.5t14 278.5q0 74 -14 117q-71 16 -104 36zM301 1677q26 41 79.5 87t104.5 69q46 -25 101.5 -71t81.5 -85q-21 -42 -79 -102.5t-104 -91.5q-46 30 -103.5 90.5t-80.5 103.5zM756 1677q26 41 79.5 87t104.5 69q46 -25 101 -71t81 -85 q-21 -42 -78.5 -102.5t-103.5 -91.5q-46 30 -103.5 90.5t-80.5 103.5z" />
<glyph unicode="&#xdd;" horiz-adv-x="1159" d="M-45 1296l8 56q138 -19 309 -19q156 0 308 19l6 -54q-36 -16 -123 -34q41 -124 61.5 -183.5t61.5 -163.5t78 -174q85 254 109 344.5t24 147.5q0 58 -45 80l6 33q142 -15 233 -15q121 0 230 19l8 -54q-53 -28 -119 -41l-360 -585q0 -404 26 -602q84 -17 123 -35l-6 -53 q-131 18 -320 18q-174 0 -297 -18l-8 55q47 25 117 39q25 191 25 487v53q-131 275 -199 407t-95.5 171t-62.5 68q-65 17 -98 34zM578 1538q148 70 245.5 142t161.5 169q18 6 53 6q30 0 45 -6q19 -32 34.5 -102t17.5 -123l-537 -135z" />
<glyph unicode="&#xde;" horiz-adv-x="1210" d="M80 1296l8 56q130 -19 295 -19q166 0 322 19l6 -54q-43 -19 -123 -34q-10 -75 -15 -168q22 0 64.5 1t62.5 1q90 1 160 -7t135.5 -30t107.5 -58.5t67.5 -97.5t25.5 -143q0 -127 -74.5 -228.5t-189.5 -154.5t-244 -53q-37 0 -53 2l8 94h25q159 0 159 309q0 124 -40 195 t-142 71q-38 0 -76 -10q0 -2 -1 -6t-1 -6q-4 -176 -4 -287q0 -415 29 -618q76 -14 123 -35l-6 -53q-148 18 -322 18q-172 0 -295 -18l-8 55q49 25 115 39q26 198 26 592q0 170 -10 343t-20 246q-66 14 -115 39z" />
<glyph unicode="&#xdf;" horiz-adv-x="1232" d="M43 903q0 43 6 55q42 16 148 46q69 171 208.5 294t313.5 158q74 0 137.5 -12.5t119 -39.5t87 -76t31.5 -116q0 -48 -22.5 -93t-55 -76t-65 -55.5t-55 -41.5t-22.5 -24q0 -36 35.5 -81t86 -88.5t101.5 -88.5t86.5 -94t35.5 -91q0 -64 -37.5 -145t-94 -152.5t-126 -130.5 t-130.5 -82q-140 0 -264 39v33q41 62 65 153t27 175h50q0 -56 20 -133q67 -103 156 -103q48 0 70 38.5t22 96.5q0 36 -40 85t-96.5 99t-113.5 101t-97 104t-40 95v39q184 152 184 387q0 65 -32 96t-99 31q-51 0 -98 -17q-49 -106 -49 -280v-459q0 -327 34 -672 q-150 14 -264 17q-58 -108 -92 -304l-51 4q3 58 30.5 412.5t28.5 546.5l2 346h-137z" />
<glyph unicode="&#xe0;" horiz-adv-x="1118" d="M47 393q0 138 70.5 267.5t180.5 223t245 150.5q76 0 177 -17t175 -42q20 23 40.5 60.5t29.5 68.5l45 -14q-47 -197 -47 -676q0 -211 16 -332q52 -23 115 -27v-45q-224 0 -453 -41l-14 15q39 166 39 342l-21 2q-36 -97 -103.5 -192t-148.5 -167q-102 0 -183 62t-122 158 t-41 204zM164 1278q2 57 17 137t34 111q12 4 33 4q47 0 65 -6q151 -258 408 -396l-21 -49zM373 487q0 -280 88 -280q35 0 87 65.5t99 192.5q0 260 -8 348q-24 30 -63 48t-78 18q-44 0 -84 -11q-41 -160 -41 -381z" />
<glyph unicode="&#xe1;" horiz-adv-x="1118" d="M47 393q0 138 70.5 267.5t180.5 223t245 150.5q76 0 177 -17t175 -42q20 23 40.5 60.5t29.5 68.5l45 -14q-47 -197 -47 -676q0 -211 16 -332q52 -23 115 -27v-45q-224 0 -453 -41l-14 15q39 166 39 342l-21 2q-36 -97 -103.5 -192t-148.5 -167q-102 0 -183 62t-122 158 t-41 204zM373 487q0 -280 88 -280q35 0 87 65.5t99 192.5q0 260 -8 348q-24 30 -63 48t-78 18q-44 0 -84 -11q-41 -160 -41 -381zM438 1128q257 138 408 396q18 6 65 6q21 0 33 -4q19 -31 34 -111t17 -137l-536 -199z" />
<glyph unicode="&#xe2;" horiz-adv-x="1118" d="M47 393q0 138 70.5 267.5t180.5 223t245 150.5q76 0 177 -17t175 -42q20 23 40.5 60.5t29.5 68.5l45 -14q-47 -197 -47 -676q0 -211 16 -332q52 -23 115 -27v-45q-224 0 -453 -41l-14 15q39 166 39 342l-21 2q-36 -97 -103.5 -192t-148.5 -167q-102 0 -183 62t-122 158 t-41 204zM143 1128q124 75 228 178.5t172 219.5q12 4 43 4t43 -4q69 -105 153.5 -181t216.5 -161l-20 -49l-393 147l-422 -203zM373 487q0 -280 88 -280q35 0 87 65.5t99 192.5q0 260 -8 348q-24 30 -63 48t-78 18q-44 0 -84 -11q-41 -160 -41 -381z" />
<glyph unicode="&#xe3;" horiz-adv-x="1118" d="M47 393q0 138 70.5 267.5t180.5 223t245 150.5q76 0 177 -17t175 -42q20 23 40.5 60.5t29.5 68.5l45 -14q-47 -197 -47 -676q0 -211 16 -332q52 -23 115 -27v-45q-224 0 -453 -41l-14 15q39 166 39 342l-21 2q-36 -97 -103.5 -192t-148.5 -167q-102 0 -183 62t-122 158 t-41 204zM152 1204q149 206 346 277q163 -105 321 -105q61 0 102 16.5t74 63.5l49 -35q-75 -103 -139 -169.5t-143 -108.5q-56 0 -195 53t-198 53q-116 0 -168 -80zM373 487q0 -280 88 -280q35 0 87 65.5t99 192.5q0 260 -8 348q-24 30 -63 48t-78 18q-44 0 -84 -11 q-41 -160 -41 -381z" />
<glyph unicode="&#xe4;" horiz-adv-x="1118" d="M47 393q0 138 70.5 267.5t180.5 223t245 150.5q76 0 177 -17t175 -42q20 23 40.5 60.5t29.5 68.5l45 -14q-47 -197 -47 -676q0 -211 16 -332q52 -23 115 -27v-45q-224 0 -453 -41l-14 15q39 166 39 342l-21 2q-36 -97 -103.5 -192t-148.5 -167q-102 0 -183 62t-122 158 t-41 204zM162 1313q25 41 79 86.5t105 68.5q46 -25 101 -70.5t81 -84.5q-21 -42 -79 -103t-103 -92q-45 30 -103 91t-81 104zM373 487q0 -280 88 -280q35 0 87 65.5t99 192.5q0 260 -8 348q-24 30 -63 48t-78 18q-44 0 -84 -11q-41 -160 -41 -381zM616 1313q25 41 79 86.5 t106 68.5q46 -25 101 -70.5t81 -84.5q-21 -42 -79 -103t-103 -92q-46 30 -104 91t-81 104z" />
<glyph unicode="&#xe5;" horiz-adv-x="1118" d="M47 393q0 138 70.5 267.5t180.5 223t245 150.5q76 0 177 -17t175 -42q20 23 40.5 60.5t29.5 68.5l45 -14q-47 -197 -47 -676q0 -211 16 -332q52 -23 115 -27v-45q-224 0 -453 -41l-14 15q39 166 39 342l-21 2q-36 -97 -103.5 -192t-148.5 -167q-102 0 -183 62t-122 158 t-41 204zM348 1253q0 95 69 163t173 91q211 0 211 -172q0 -92 -63.5 -157t-162.5 -95q-96 0 -161.5 43.5t-65.5 126.5zM373 487q0 -280 88 -280q35 0 87 65.5t99 192.5q0 260 -8 348q-24 30 -63 48t-78 18q-44 0 -84 -11q-41 -160 -41 -381zM473 1303q0 -55 32.5 -89 t88.5 -34q14 0 36 5.5t32 12.5q14 38 14 90q0 56 -32 88.5t-89 32.5q-46 0 -68 -16q-14 -38 -14 -90z" />
<glyph unicode="&#xe6;" horiz-adv-x="1521" d="M49 334q0 105 50 217.5t130 205.5t182.5 167t206.5 110q162 0 336 -61q42 33 62 45q75 16 158 16q129 0 198.5 -70.5t69.5 -199.5q0 -18 -4 -72q50 -12 84 -12q16 0 24 2l4 -45q-275 -46 -594 -174q8 -126 63.5 -200.5t166.5 -74.5q78 0 153 42.5t131 109.5l27 -23 q-126 -227 -391 -348q-156 0 -266 70t-158 211q-39 -67 -137 -155t-172 -126q-141 19 -232.5 121.5t-91.5 243.5zM383 395q0 -87 27 -137.5t65 -50.5q19 0 49 12t68.5 44t62.5 75q0 191 117 438q-36 46 -90 74.5t-109 28.5q-44 0 -84 -11q-106 -241 -106 -473zM952 541 q63 31 203 84q0 135 -24 194.5t-87 59.5q-35 0 -69 -17q-23 -118 -23 -321z" />
<glyph unicode="&#xe7;" horiz-adv-x="792" d="M49 420q0 95 41.5 191.5t109.5 176t154 143.5t178 103q193 0 347 -53v-33q-101 -91 -133.5 -152t-43.5 -161h-49q-6 79 -20 131q-41 40 -101.5 68t-117.5 34q-37 -195 -37 -362q0 -67 7.5 -117.5t27 -97.5t58.5 -72.5t97 -25.5q62 0 125.5 42.5t98.5 100.5l32 -17 q-56 -114 -140.5 -207t-188.5 -143q-203 0 -324 123t-121 328zM199 -438q16 25 41.5 78.5t31.5 76.5l9 4q22 -36 59 -57.5t80 -21.5q36 0 59 10q13 23 13 47q0 43 -54.5 62.5t-128.5 19.5l-12 8l78 240l80 4l-47 -107l8 -6q233 0 233 -158q-79 -151 -250 -243 q-42 0 -102.5 12.5t-97.5 30.5z" />
<glyph unicode="&#xe8;" horiz-adv-x="980" d="M49 420q0 95 41.5 192t109.5 176.5t154 143.5t178 102q82 0 145.5 -12t117 -40t82 -80t28.5 -126q0 -66 -18 -139q59 -27 102 -29l-2 -45q-273 3 -610 -69q0 -152 48 -229t177 -77q78 0 153.5 42.5t131.5 109.5l26 -23q-126 -227 -391 -348q-218 0 -345.5 119t-127.5 332 zM100 1278q2 56 17.5 136t34.5 112q12 4 32 4q48 0 66 -6q151 -258 407 -396l-20 -49zM377 549q96 41 205 65q0 160 -18.5 215.5t-80.5 55.5q-37 0 -71 -17q-32 -159 -35 -319z" />
<glyph unicode="&#xe9;" horiz-adv-x="980" d="M49 420q0 95 41.5 192t109.5 176.5t154 143.5t178 102q82 0 145.5 -12t117 -40t82 -80t28.5 -126q0 -66 -18 -139q59 -27 102 -29l-2 -45q-273 3 -610 -69q0 -152 48 -229t177 -77q78 0 153.5 42.5t131.5 109.5l26 -23q-126 -227 -391 -348q-218 0 -345.5 119t-127.5 332 zM377 549q96 41 205 65q0 160 -18.5 215.5t-80.5 55.5q-37 0 -71 -17q-32 -159 -35 -319zM385 1128q257 138 408 396q18 6 65 6q21 0 33 -4q19 -31 34 -111t17 -137l-536 -199z" />
<glyph unicode="&#xea;" horiz-adv-x="1140" d="M49 420q0 95 41.5 192t109.5 176.5t154 143.5t178 102q82 0 145.5 -12t117 -40t82 -80t28.5 -126q0 -66 -18 -139q59 -27 102 -29l-2 -45q-273 3 -610 -69q0 -152 48 -229t177 -77q78 0 153.5 42.5t131.5 109.5l26 -23q-126 -227 -391 -348q-218 0 -345.5 119t-127.5 332 zM119 1128q124 75 227.5 178.5t171.5 219.5q12 4 43 4t43 -4q68 -116 172 -219.5t228 -178.5l-21 -49l-422 162l-422 -162zM377 549q96 41 205 65q0 160 -18.5 215.5t-80.5 55.5q-37 0 -71 -17q-32 -159 -35 -319z" />
<glyph unicode="&#xeb;" horiz-adv-x="980" d="M49 420q0 95 41.5 192t109.5 176.5t154 143.5t178 102q82 0 145.5 -12t117 -40t82 -80t28.5 -126q0 -66 -18 -139q59 -27 102 -29l-2 -45q-273 3 -610 -69q0 -152 48 -229t177 -77q78 0 153.5 42.5t131.5 109.5l26 -23q-126 -227 -391 -348q-218 0 -345.5 119t-127.5 332 zM152 1313q25 41 79 86.5t105 68.5q46 -25 101 -70.5t81 -84.5q-21 -42 -79 -103t-103 -92q-45 30 -103 91t-81 104zM377 549q96 41 205 65q0 160 -18.5 215.5t-80.5 55.5q-37 0 -71 -17q-32 -159 -35 -319zM606 1313q25 41 79 86.5t106 68.5q46 -25 101 -70.5t81 -84.5 q-21 -42 -79 -103t-103 -92q-46 30 -104 91t-81 104z" />
<glyph unicode="&#xec;" horiz-adv-x="671" d="M27 1278q2 57 17 137t34 111q12 4 33 4q47 0 65 -6q151 -258 408 -396l-21 -49zM35 27q38 21 127 51q10 52 19 217.5t9 363.5q0 129 -16 263q-49 22 -115 26v45q244 0 473 41l15 -14q-43 -183 -43 -510q0 -350 18 -438q64 -18 135 -49l-6 -41q-138 18 -307 18 q-198 0 -303 -14z" />
<glyph unicode="&#xed;" horiz-adv-x="671" d="M35 27q38 21 127 51q10 52 19 217.5t9 363.5q0 129 -16 263q-49 22 -115 26v45q244 0 473 41l15 -14q-43 -183 -43 -510q0 -350 18 -438q64 -18 135 -49l-6 -41q-138 18 -307 18q-198 0 -303 -14zM92 1128q257 138 408 396q18 6 65 6q21 0 33 -4q19 -31 34 -111t17 -137 l-536 -199z" />
<glyph unicode="&#xee;" horiz-adv-x="671" d="M-84 1128q124 75 227.5 178.5t171.5 219.5q12 4 43 4t43 -4q68 -116 172 -219.5t228 -178.5l-21 -49l-422 162l-421 -162zM35 27q38 21 127 51q10 52 19 217.5t9 363.5q0 129 -16 263q-49 22 -115 26v45q244 0 473 41l15 -14q-43 -183 -43 -510q0 -350 18 -438 q64 -18 135 -49l-6 -41q-138 18 -307 18q-198 0 -303 -14z" />
<glyph unicode="&#xef;" horiz-adv-x="671" d="M-51 1313q25 41 79 86.5t105 68.5q46 -25 101 -70.5t81 -84.5q-21 -42 -79 -103t-103 -92q-45 30 -103 91t-81 104zM35 27q38 21 127 51q10 52 19 217.5t9 363.5q0 129 -16 263q-49 22 -115 26v45q244 0 473 41l15 -14q-43 -183 -43 -510q0 -350 18 -438q64 -18 135 -49 l-6 -41q-138 18 -307 18q-198 0 -303 -14zM375 1313q25 41 79 86.5t105 68.5q46 -25 101 -70.5t81 -84.5q-21 -42 -79 -103t-103 -92q-45 30 -103 91t-81 104z" />
<glyph unicode="&#xf0;" horiz-adv-x="1048" d="M49 371q0 185 142 315.5t370 171.5q46 -25 113 -98l12 6q-77 196 -166 315l-252 -178l-20 4l-51 97q25 15 79 47.5t94 57t83 54.5q-111 122 -308 246l29 47q211 -77 399 -209l95 66q76 51 172 133l18 -4l47 -92l-241 -170q155 -129 245 -287t90 -336q0 -138 -68.5 -264.5 t-198.5 -215.5t-294 -108q-170 21 -279.5 130.5t-109.5 271.5zM379 424q0 -59 8 -111t27 -101t55.5 -77.5t87.5 -28.5q46 0 70 21q45 114 45 346q0 88 -15 154q-70 99 -161 125q-56 0 -86.5 -88.5t-30.5 -239.5z" />
<glyph unicode="&#xf1;" horiz-adv-x="1120" d="M25 27q56 30 127 51q10 52 19 217.5t9 363.5q0 129 -16 263q-49 22 -115 26v45q224 0 453 41l14 -14q-39 -166 -39 -342l21 -2q41 104 112.5 204t153.5 154q94 0 159 -30t99.5 -89t48 -134t10.5 -177l-16 -526q64 -22 121 -53l-6 -39q-116 14 -281 14q-109 0 -186 -6v43 q18 82 29.5 225.5t11.5 267.5q0 142 -12.5 204.5t-47.5 62.5q-48 0 -104.5 -71.5t-95.5 -186.5q0 -379 18 -467q64 -18 135 -49l-6 -41q-138 18 -307 18q-198 0 -303 -14zM195 1204q149 206 346 277q163 -105 321 -105q61 0 102 16.5t74 63.5l49 -35q-75 -103 -139 -169.5 t-143 -108.5q-56 0 -195 53t-198 53q-116 0 -168 -80z" />
<glyph unicode="&#xf2;" horiz-adv-x="999" d="M57 406q0 101 41.5 200t111 179.5t158.5 144.5t187 104q225 0 339 -111.5t114 -324.5q0 -202 -137 -374t-339 -255q-217 0 -346 118t-129 319zM154 1278q2 57 17 137t34 111q12 4 33 4q47 0 65 -6q151 -258 408 -396l-21 -49zM393 522q0 -94 6 -160t22.5 -125t49 -88.5 t82.5 -29.5q55 0 82 16q37 154 37 346q0 74 -3.5 129.5t-13.5 110t-27.5 88.5t-46.5 55t-69 21q-44 0 -82 -17q-37 -154 -37 -346z" />
<glyph unicode="&#xf3;" horiz-adv-x="999" d="M57 406q0 101 41.5 200t111 179.5t158.5 144.5t187 104q225 0 339 -111.5t114 -324.5q0 -202 -137 -374t-339 -255q-217 0 -346 118t-129 319zM375 1128q256 138 407 396q18 6 66 6q21 0 33 -4q19 -31 34 -111t17 -137l-537 -199zM393 522q0 -94 6 -160t22.5 -125 t49 -88.5t82.5 -29.5q55 0 82 16q37 154 37 346q0 74 -3.5 129.5t-13.5 110t-27.5 88.5t-46.5 55t-69 21q-44 0 -82 -17q-37 -154 -37 -346z" />
<glyph unicode="&#xf4;" horiz-adv-x="999" d="M57 406q0 101 41.5 200t111 179.5t158.5 144.5t187 104q225 0 339 -111.5t114 -324.5q0 -202 -137 -374t-339 -255q-217 0 -346 118t-129 319zM150 1128q124 75 227.5 178.5t171.5 219.5q12 4 43 4t43 -4q68 -116 171.5 -219.5t227.5 -178.5l-20 -49l-422 162l-422 -162z M393 522q0 -94 6 -160t22.5 -125t49 -88.5t82.5 -29.5q55 0 82 16q37 154 37 346q0 74 -3.5 129.5t-13.5 110t-27.5 88.5t-46.5 55t-69 21q-44 0 -82 -17q-37 -154 -37 -346z" />
<glyph unicode="&#xf5;" horiz-adv-x="999" d="M57 406q0 101 41.5 200t111 179.5t158.5 144.5t187 104q225 0 339 -111.5t114 -324.5q0 -202 -137 -374t-339 -255q-217 0 -346 118t-129 319zM129 1204q149 206 346 277q163 -105 322 -105q61 0 102 16.5t74 63.5l49 -35q-74 -102 -139 -169t-144 -109q-56 0 -195 53 t-198 53q-116 0 -168 -80zM393 522q0 -94 6 -160t22.5 -125t49 -88.5t82.5 -29.5q55 0 82 16q37 154 37 346q0 74 -3.5 129.5t-13.5 110t-27.5 88.5t-46.5 55t-69 21q-44 0 -82 -17q-37 -154 -37 -346z" />
<glyph unicode="&#xf6;" horiz-adv-x="999" d="M57 406q0 101 41.5 200t111 179.5t158.5 144.5t187 104q225 0 339 -111.5t114 -324.5q0 -202 -137 -374t-339 -255q-217 0 -346 118t-129 319zM119 1313q25 41 79 86.5t105 68.5q46 -25 101 -70.5t81 -84.5q-21 -42 -79 -103t-103 -92q-45 30 -103 91t-81 104zM393 522 q0 -94 6 -160t22.5 -125t49 -88.5t82.5 -29.5q55 0 82 16q37 154 37 346q0 74 -3.5 129.5t-13.5 110t-27.5 88.5t-46.5 55t-69 21q-44 0 -82 -17q-37 -154 -37 -346zM573 1313q25 41 79 86.5t106 68.5q46 -25 101 -70.5t81 -84.5q-21 -42 -79 -103t-103 -92q-46 30 -104 91 t-81 104z" />
<glyph unicode="&#xf7;" horiz-adv-x="1179" d="M117 459l18 135q366 -19 744 -19q81 0 174 7l12 -13l-18 -125h-914zM475 219q0 42 36.5 78.5t78.5 36.5q43 0 77.5 -36t34.5 -79q0 -42 -35 -79.5t-77 -37.5q-41 0 -78 38t-37 79zM475 799q0 42 36.5 78t78.5 36q43 0 77.5 -35.5t34.5 -78.5q0 -42 -35 -79.5t-77 -37.5 q-41 0 -78 38t-37 79z" />
<glyph unicode="&#xf8;" horiz-adv-x="1062" d="M57 406q0 101 41.5 200t111 179.5t158.5 144.5t187 104q59 0 117 -10q36 117 43 141q40 3 88 19l10 -8q-33 -69 -70 -168q265 -80 265 -410q0 -202 -137 -374t-339 -255q-93 0 -176 25l-69 -189h-13q-36 19 -59 60l70 155q-108 51 -168 151.5t-60 234.5zM393 522 q0 -133 10 -209l156 398l49 129q-39 45 -96 45q-44 0 -82 -17q-37 -154 -37 -346zM436 199q36 -80 117 -80q55 0 82 16q37 154 37 346q0 173 -25 273l-14 -37z" />
<glyph unicode="&#xf9;" horiz-adv-x="1228" d="M25 948v45q244 0 473 41l14 -14q-43 -183 -43 -547q0 -143 12 -204.5t47 -61.5q48 0 105 71.5t96 186.5q0 379 -18 467q-67 19 -136 49l7 41q138 -18 307 -18q198 0 303 14l6 -41q-38 -21 -127 -51q-10 -52 -19.5 -218.5t-9.5 -363.5q3 -148 17 -262q52 -23 115 -27v-45 q-224 0 -453 -41l-14 15q38 162 38 342l-20 2q-41 -105 -112.5 -205t-153.5 -154q-97 0 -161 29t-97.5 88t-45.5 133t-10 180l7 260q3 129 -13 263q-49 22 -114 26zM193 1278q2 57 17 137t34 111q12 4 32 4q48 0 66 -6q151 -258 408 -396l-21 -49z" />
<glyph unicode="&#xfa;" horiz-adv-x="1228" d="M25 948v45q244 0 473 41l14 -14q-43 -183 -43 -547q0 -143 12 -204.5t47 -61.5q48 0 105 71.5t96 186.5q0 379 -18 467q-67 19 -136 49l7 41q138 -18 307 -18q198 0 303 14l6 -41q-38 -21 -127 -51q-10 -52 -19.5 -218.5t-9.5 -363.5q3 -148 17 -262q52 -23 115 -27v-45 q-224 0 -453 -41l-14 15q38 162 38 342l-20 2q-41 -105 -112.5 -205t-153.5 -154q-97 0 -161 29t-97.5 88t-45.5 133t-10 180l7 260q3 129 -13 263q-49 22 -114 26zM449 1128q256 138 407 396q18 6 66 6q20 0 32 -4q19 -32 34.5 -112t17.5 -136l-537 -199z" />
<glyph unicode="&#xfb;" horiz-adv-x="1236" d="M25 948v45q244 0 473 41l14 -14q-43 -183 -43 -547q0 -143 12 -204.5t47 -61.5q48 0 105 71.5t96 186.5q0 379 -18 467q-67 19 -136 49l7 41q138 -18 307 -18q198 0 303 14l6 -41q-38 -21 -127 -51q-10 -52 -19.5 -218.5t-9.5 -363.5q3 -148 17 -262q52 -23 115 -27v-45 q-224 0 -453 -41l-14 15q38 162 38 342l-20 2q-41 -105 -112.5 -205t-153.5 -154q-97 0 -161 29t-97.5 88t-45.5 133t-10 180l7 260q3 129 -13 263q-49 22 -114 26zM154 1128q124 75 227.5 178.5t171.5 219.5q12 4 43 4t43 -4q68 -116 171.5 -219.5t227.5 -178.5l-20 -49 l-422 162l-422 -162z" />
<glyph unicode="&#xfc;" horiz-adv-x="1228" d="M25 948v45q244 0 473 41l14 -14q-43 -183 -43 -547q0 -143 12 -204.5t47 -61.5q48 0 105 71.5t96 186.5q0 379 -18 467q-67 19 -136 49l7 41q138 -18 307 -18q198 0 303 14l6 -41q-38 -21 -127 -51q-10 -52 -19.5 -218.5t-9.5 -363.5q3 -148 17 -262q52 -23 115 -27v-45 q-224 0 -453 -41l-14 15q38 162 38 342l-20 2q-41 -105 -112.5 -205t-153.5 -154q-97 0 -161 29t-97.5 88t-45.5 133t-10 180l7 260q3 129 -13 263q-49 22 -114 26zM186 1313q25 41 79 86.5t106 68.5q46 -25 101 -70.5t81 -84.5q-21 -42 -79 -103t-103 -92q-46 30 -104 91 t-81 104zM641 1313q25 41 79 86.5t105 68.5q47 -25 102 -70.5t81 -84.5q-21 -42 -79 -103t-104 -92q-45 30 -103 91t-81 104z" />
<glyph unicode="&#xfd;" horiz-adv-x="1191" d="M49 948v45q244 0 473 41l15 -14q-43 -183 -43 -547q0 -143 12 -204.5t47 -61.5q36 0 87 77.5t85 180.5q0 379 -18 467q-60 21 -107 49l6 41q138 -18 279 -18q198 0 303 14l6 -41q-38 -21 -127 -51q-10 -51 -19.5 -190.5t-9.5 -280.5q0 -275 31 -473q-61 -119 -210 -250 t-273 -172q-202 0 -469 84v32q80 84 107.5 133.5t37.5 139.5h53q3 -54 11 -96q125 -144 288 -144q43 0 84 17q30 132 36.5 231.5t6.5 368.5l-20 2q-48 -122 -104.5 -215t-133.5 -144q-78 0 -134.5 20t-91.5 55t-55.5 90.5t-27 118t-4.5 146.5l6 260q3 136 -12 263 q-49 22 -115 26zM473 1128q257 138 408 396q18 6 65 6q21 0 33 -4q19 -31 34 -111t17 -137l-536 -199z" />
<glyph unicode="&#xfe;" horiz-adv-x="1122" d="M18 -381q45 11 103 39q18 106 27 235.5t11 231t3 299.5l4 428q0 88 -4.5 254.5t-11.5 222.5q-52 23 -115 27v45q244 0 473 41l14 -15q-28 -102 -44.5 -257.5t-16.5 -317.5l-6 -174l20 -2q36 96 103.5 191t148.5 167q102 0 183 -62t122 -158t41 -204q0 -104 -40 -205 t-109.5 -182.5t-157.5 -146.5t-188 -107q-58 0 -138 13q0 -194 17 -318q74 -17 164 -57l-11 -43q-136 26 -293 26q-163 0 -290 -16zM471 539q0 -261 8 -349q24 -30 63.5 -47.5t78.5 -17.5q48 0 84 10q40 156 40 381q0 281 -88 281q-35 0 -87 -65.5t-99 -192.5z" />
<glyph unicode="&#xff;" horiz-adv-x="1191" d="M49 948v45q244 0 473 41l15 -14q-43 -183 -43 -547q0 -143 12 -204.5t47 -61.5q36 0 87 77.5t85 180.5q0 379 -18 467q-60 21 -107 49l6 41q138 -18 279 -18q198 0 303 14l6 -41q-38 -21 -127 -51q-10 -51 -19.5 -190.5t-9.5 -280.5q0 -275 31 -473q-61 -119 -210 -250 t-273 -172q-202 0 -469 84v32q80 84 107.5 133.5t37.5 139.5h53q3 -54 11 -96q125 -144 288 -144q43 0 84 17q30 132 36.5 231.5t6.5 368.5l-20 2q-48 -122 -104.5 -215t-133.5 -144q-78 0 -134.5 20t-91.5 55t-55.5 90.5t-27 118t-4.5 146.5l6 260q3 136 -12 263 q-49 22 -115 26zM211 1313q25 41 79 86.5t105 68.5q47 -25 102 -70.5t81 -84.5q-21 -42 -79 -103t-104 -92q-45 30 -103 91t-81 104zM666 1313q25 41 79 86.5t105 68.5q46 -25 101 -70.5t81 -84.5q-21 -42 -79 -103t-103 -92q-45 30 -103 91t-81 104z" />
<glyph unicode="&#x152;" horiz-adv-x="1591" d="M61 543q0 290 172 506t461 315q115 0 257.5 -15.5t205.5 -15.5q266 0 467 27l12 -43q-47 -63 -65 -140t-21 -194h-55q-18 94 -18 178q-75 35 -195 35q-86 0 -121 -14q-25 -65 -40 -185.5t-17 -214.5q60 -14 127 -14q63 0 105.5 15t78.5 57l45 -11q-26 -79 -26 -165 q0 -83 20 -181l-51 -8q-30 78 -43 152q-39 10 -129 10q-72 0 -129 -8q0 -60 0.5 -96t2.5 -83.5t6 -75t11.5 -61t18.5 -52.5t26.5 -39t36.5 -29.5t48 -16t61 -6.5q161 0 289 125l32 -31q-177 -226 -385 -295q-136 0 -221.5 36t-144.5 112q-145 -109 -322 -148 q-241 0 -370.5 158t-129.5 416zM428 694q0 -55 0.5 -89t3 -84t7.5 -82t14.5 -72.5t23.5 -66t34.5 -53t47 -42.5t62.5 -25t79 -10h35q35 21 46.5 94.5t11.5 251.5q0 123 5 249t11.5 235t7.5 149q-82 43 -174 43q-96 0 -141 -35q-34 -80 -54 -219t-20 -244z" />
<glyph unicode="&#x153;" horiz-adv-x="1595" d="M49 406q0 101 41.5 200t111 179.5t158.5 144.5t187 104q248 0 368 -166q97 110 232 166q82 0 145.5 -12t117 -40t82 -80t28.5 -126q0 -61 -19 -139q59 -26 103 -29l-2 -45q-274 3 -611 -69q0 -152 48.5 -229t177.5 -77q78 0 153 42.5t131 109.5l27 -23 q-126 -227 -391 -348q-130 0 -225.5 52t-149.5 139q-98 -134 -238 -191q-217 0 -346 118t-129 319zM385 522q0 -94 6 -160t22.5 -125t49 -88.5t82.5 -29.5q55 0 82 16q37 154 37 346q0 74 -3.5 129.5t-13.5 110t-27.5 88.5t-46.5 55t-69 21q-44 0 -82 -17q-37 -154 -37 -346 zM991 549q96 41 205 65q0 161 -18 216t-80 55q-38 0 -72 -17q-32 -159 -35 -319z" />
<glyph unicode="&#x2c6;" horiz-adv-x="884" d="M0 1128q124 75 227.5 178.5t171.5 219.5q12 4 43 4t43 -4q68 -116 172 -219.5t228 -178.5l-21 -49l-422 162l-422 -162z" />
<glyph unicode="&#x2dc;" horiz-adv-x="892" d="M0 1204q149 206 346 277q163 -105 322 -105q61 0 102 16.5t74 63.5l49 -35q-74 -102 -139 -169t-144 -109q-56 0 -195 53t-198 53q-116 0 -168 -80z" />
<glyph unicode="&#x2000;" horiz-adv-x="927" />
<glyph unicode="&#x2001;" horiz-adv-x="1855" />
<glyph unicode="&#x2002;" horiz-adv-x="927" />
<glyph unicode="&#x2003;" horiz-adv-x="1855" />
<glyph unicode="&#x2004;" horiz-adv-x="618" />
<glyph unicode="&#x2005;" horiz-adv-x="463" />
<glyph unicode="&#x2006;" horiz-adv-x="309" />
<glyph unicode="&#x2007;" horiz-adv-x="309" />
<glyph unicode="&#x2008;" horiz-adv-x="231" />
<glyph unicode="&#x2009;" horiz-adv-x="371" />
<glyph unicode="&#x200a;" horiz-adv-x="103" />
<glyph unicode="&#x2010;" horiz-adv-x="614" d="M49 475l12 135h95q212 0 393 21l16 -10l-12 -127l-485 -31z" />
<glyph unicode="&#x2011;" horiz-adv-x="614" d="M49 475l12 135h95q212 0 393 21l16 -10l-12 -127l-485 -31z" />
<glyph unicode="&#x2012;" horiz-adv-x="614" d="M49 475l12 135h95q212 0 393 21l16 -10l-12 -127l-485 -31z" />
<glyph unicode="&#x2013;" horiz-adv-x="933" d="M14 506l17 121q269 -19 659 -19q137 0 217 6l13 -12l-17 -110h-872z" />
<glyph unicode="&#x2014;" horiz-adv-x="1343" d="M14 506l17 121q366 -19 966 -19q241 0 320 6l12 -12l-16 -110h-1282z" />
<glyph unicode="&#x2018;" horiz-adv-x="526" d="M70 874q0 130 117 288t247 233l33 -41q-65 -62 -106 -144.5t-50 -169.5q39 -33 83.5 -82.5t62.5 -83.5q-27 -44 -83.5 -92.5t-111.5 -72.5q-49 27 -106.5 75t-85.5 90z" />
<glyph unicode="&#x2019;" horiz-adv-x="526" d="M59 750q65 62 106 144t50 169q-39 32 -83 82t-62 84q27 44 83.5 93t110.5 73q49 -27 107 -75.5t86 -90.5q0 -130 -117.5 -287.5t-247.5 -232.5z" />
<glyph unicode="&#x201a;" horiz-adv-x="526" d="M59 -262q137 115 156 270q-39 32 -83 82t-62 84q27 44 83.5 93t110.5 73q49 -27 107 -75.5t86 -90.5q0 -121 -117 -267t-246 -214z" />
<glyph unicode="&#x201c;" horiz-adv-x="966" d="M70 874q0 130 117 288t247 233l33 -41q-65 -62 -106 -144.5t-50 -169.5q39 -33 83.5 -82.5t62.5 -83.5q-27 -44 -83.5 -92.5t-111.5 -72.5q-49 27 -106.5 75t-85.5 90zM510 874q0 130 117 288t247 233l33 -41q-65 -62 -105.5 -144t-49.5 -170q39 -32 83 -82t62 -84 q-27 -44 -83.5 -92.5t-111.5 -72.5q-49 27 -106.5 75t-85.5 90z" />
<glyph unicode="&#x201d;" horiz-adv-x="966" d="M59 750q65 62 106 144t50 169q-39 32 -83 82t-62 84q27 44 83.5 93t110.5 73q49 -27 107 -75.5t86 -90.5q0 -130 -117.5 -287.5t-247.5 -232.5zM500 750q65 62 105.5 144t49.5 169q-39 32 -83 82t-62 84q27 44 84 93t111 73q49 -26 106.5 -75t85.5 -91 q0 -130 -117.5 -287.5t-247.5 -232.5z" />
<glyph unicode="&#x201e;" horiz-adv-x="966" d="M59 -262q137 115 156 270q-39 32 -83 82t-62 84q27 44 83.5 93t110.5 73q49 -27 107 -75.5t86 -90.5q0 -121 -117 -267t-246 -214zM500 -262q65 54 105.5 124.5t49.5 145.5q-39 32 -83 82t-62 84q27 44 84 93t111 73q49 -26 106.5 -75t85.5 -91q0 -121 -116.5 -267 t-245.5 -214z" />
<glyph unicode="&#x2022;" horiz-adv-x="759" d="M70 588v28q117 83 186 150t127 168h41q58 -102 128 -170t183 -146v-28q-101 -69 -174 -150.5t-137 -193.5h-41q-66 115 -138.5 196t-174.5 146z" />
<glyph unicode="&#x202f;" horiz-adv-x="371" />
<glyph unicode="&#x2039;" horiz-adv-x="616" d="M57 580v41q109 80 208.5 177.5t217.5 231.5l39 -26l-229 -396l231 -426l-41 -28q-14 15 -70 77.5t-73 81t-62.5 67t-72.5 73t-67.5 60.5t-80.5 67z" />
<glyph unicode="&#x203a;" horiz-adv-x="616" d="M92 182l232 426l-230 396l39 26q9 -11 45.5 -52t48 -54t44 -49t48 -51.5t44.5 -45t48.5 -46t46 -39t51.5 -40t50 -32.5v-41q-58 -37 -118 -91.5t-97 -95t-107.5 -121.5t-103.5 -118z" />
<glyph unicode="&#x205f;" horiz-adv-x="463" />
<glyph unicode="&#x20ac;" horiz-adv-x="1024" d="M68 416q25 44 34 80l84 -4q4 37 9 61l-113 -6l-6 12q26 47 35 80l106 -6q58 150 185 278t274 191q197 0 352 -55v-33q-100 -86 -133.5 -145t-46.5 -148h-49q-4 48 -21 113q-42 41 -104 69.5t-119 34.5q-32 -169 -43 -305q146 0 328 10q18 -60 20 -65v-13h-350v-76 q129 0 336 11q3 -9 5.5 -21.5t5.5 -22.5t9 -22v-12q-33 0 -105 0.5t-133 0.5t-112 -1q30 -232 195 -232q63 0 127 46.5t100 107.5l35 -18q-58 -116 -144.5 -211t-193.5 -146q-193 0 -315 123t-136 318l-110 -7z" />
<glyph unicode="&#x25fc;" horiz-adv-x="1034" d="M0 0v1034h1034v-1034h-1034z" />
</font>
</defs>
</svg>
